<?xml version="1.0" encoding="UTF-8" standalone="no"?>
<!-- Created with Inkscape (http://www.inkscape.org/) -->

<svg
   width="1122.5197"
   height="793.70081"
   viewBox="0 0 296.99998 210.00001"
   version="1.1"
   id="svg5"
   sodipodi:docname="landing.svg"
   inkscape:version="1.1.1 (3bf5ae0d25, 2021-09-20)"
   xmlns:inkscape="http://www.inkscape.org/namespaces/inkscape"
   xmlns:sodipodi="http://sodipodi.sourceforge.net/DTD/sodipodi-0.dtd"
   xmlns:xlink="http://www.w3.org/1999/xlink"
   xmlns="http://www.w3.org/2000/svg"
   xmlns:svg="http://www.w3.org/2000/svg">
  <sodipodi:namedview
     id="namedview7"
     pagecolor="#ffffff"
     bordercolor="#999999"
     borderopacity="1"
     inkscape:pageshadow="0"
     inkscape:pageopacity="0"
     inkscape:pagecheckerboard="0"
     inkscape:document-units="px"
     showgrid="false"
     units="px"
     inkscape:zoom="0.64052329"
     inkscape:cx="764.99951"
     inkscape:cy="321.61204"
     inkscape:window-width="1920"
     inkscape:window-height="1018"
     inkscape:window-x="0"
     inkscape:window-y="30"
     inkscape:window-maximized="1"
     inkscape:current-layer="layer2"
     inkscape:snap-bbox="false"
     inkscape:snap-smooth-nodes="true"
     inkscape:object-paths="true"
     inkscape:snap-intersection-paths="true"
     inkscape:snap-nodes="false" />
  <defs
     id="defs2">
    <inkscape:path-effect
       effect="spiro"
       id="path-effect3339"
       is_visible="true"
       lpeversion="1" />
    <inkscape:path-effect
       effect="spiro"
       id="path-effect3215"
       is_visible="true"
       lpeversion="1" />
    <linearGradient
       inkscape:collect="always"
       id="linearGradient2076">
      <stop
         style="stop-color:#7900c8;stop-opacity:1"
         offset="0"
         id="stop2072" />
      <stop
         style="stop-color:#ff0077;stop-opacity:1"
         offset="1"
         id="stop2074" />
    </linearGradient>
    <linearGradient
       inkscape:collect="always"
       xlink:href="#linearGradient2076"
       id="linearGradient2144"
       x1="-191.61126"
       y1="93.477667"
       x2="-27.212284"
       y2="93.477667"
       gradientUnits="userSpaceOnUse" />
  </defs>
  <g
     inkscape:groupmode="layer"
     id="layer2"
     inkscape:label="BG"
     style="opacity:0.5">
    <path
       style="fill:#27496d;stroke:none;stroke-width:0.264583px;stroke-linecap:butt;stroke-linejoin:miter;stroke-opacity:1;fill-opacity:1;opacity:0.5"
       d="m 190.43394,91.840113 c 3.28579,-10.446562 10.06505,-19.743286 18.94199,-26.156324 8.87693,-6.413039 19.79571,-9.924213 30.74658,-9.999643 10.95086,-0.07543 21.8851,3.26842 30.98387,9.362625 9.09878,6.094204 16.33591,14.902363 20.65377,24.966317 4.31786,10.063952 5.7156,21.344772 4.09677,32.175582 -1.61883,10.83081 -6.2363,21.18312 -13.12509,29.69615 -6.88878,8.51303 -16.02272,15.17431 -26.19182,19.23835 -10.16911,4.06403 -21.34867,5.53332 -32.23555,4.34884 -3.37025,-0.36668 -6.71547,-0.98272 -10.10029,-1.17259 -3.38482,-0.18987 -6.86155,0.0657 -9.98834,1.37575 -3.56627,1.49417 -6.45551,4.26501 -8.86527,7.2889 -2.40976,3.02388 -4.42111,6.34638 -6.78843,9.40361 -4.48687,5.79449 -10.31669,10.63221 -17.08314,13.44703 -6.76646,2.81482 -14.48684,3.52303 -21.51301,1.43949 -7.02617,-2.08354 -13.25408,-7.06592 -16.34375,-13.71137 -1.54484,-3.32273 -2.30307,-7.01734 -2.11896,-10.677 0.18411,-3.65967 1.31768,-7.27662 3.3164,-10.3478 2.06386,-3.17129 4.998,-5.70911 8.2184,-7.69548 3.2204,-1.98636 6.73385,-3.44889 10.27586,-4.7796 7.08402,-2.66143 14.56273,-4.94945 20.27005,-9.91865 3.89543,-3.39164 6.74045,-7.87723 8.67331,-12.66697 1.93286,-4.78975 2.98944,-9.89103 3.68453,-15.00908 1.39017,-10.23609 1.39267,-20.75402 4.49212,-30.608137 z"
       id="path3213"
       inkscape:path-effect="#path-effect3215"
       inkscape:original-d="m 190.43394,91.840113 c -0.71407,-8.981027 23.474,66.856007 33.87052,83.631897 10.39653,16.77589 98.08124,126.47814 -20.08863,0.20316 -9.22539,-9.85815 -16.06762,11.74085 -15.6537,16.69251 0.41391,4.95166 -36.98464,-14.57342 -53.74246,-19.84965 -16.75781,-5.27625 18.61946,-15.58257 38.76431,-22.39373 20.14486,-6.81116 17.56403,-49.30315 16.84996,-58.284187 z"
       sodipodi:nodetypes="sssssss" />
    <path
       style="fill:#27496d;stroke:none;stroke-width:0.264583px;stroke-linecap:butt;stroke-linejoin:miter;stroke-opacity:1;fill-opacity:1;opacity:0.5"
       d="m 60.231983,15.816271 c 5.006222,-4.45799 11.608052,-7.0812987 18.308203,-7.290836 6.700152,-0.2095372 13.447977,1.993221 18.743684,6.103139 5.29571,4.109918 9.10232,10.09448 10.59515,16.629569 1.49284,6.535089 0.66416,13.573499 -2.29154,19.590125 -2.9557,6.016626 -8.015334,10.971143 -14.086015,13.814164 -6.070681,2.843021 -13.110404,3.55807 -19.632414,2.009094 C 65.347041,65.122551 59.384615,61.322428 55.214135,56.074283 51.043654,50.826139 48.689312,44.164938 48.619896,37.46187 c -0.03373,-3.257482 0.443705,-6.60096 -0.508112,-9.716465 -0.475908,-1.557752 -1.327446,-3.032981 -2.597494,-4.052814 -0.635024,-0.509916 -1.369376,-0.900447 -2.155567,-1.112986 -0.786192,-0.212539 -1.624183,-0.244536 -2.4182,-0.06341 -1.016524,0.231886 -1.926966,0.799681 -2.738124,1.45475 -0.811157,0.65507 -1.542173,1.403792 -2.341486,2.073264 -1.908221,1.598248 -4.207424,2.730234 -6.642335,3.246872 -2.43491,0.516638 -5.001139,0.414797 -7.381223,-0.313835 -2.380084,-0.728631 -4.567894,-2.084588 -6.263762,-3.906601 -1.695869,-1.822013 -2.893532,-4.106967 -3.406045,-6.542749 -0.512513,-2.435782 -0.335764,-5.01561 0.524276,-7.351425 0.860041,-2.3358157 2.403055,-4.4186654 4.399836,-5.9047906 1.996782,-1.4861251 4.441367,-2.3673899 6.928116,-2.4759427 2.486749,-0.1085528 5.004931,0.5592203 7.099748,1.9036331 1.946068,1.2489488 3.490969,3.0355335 4.81796,4.9292465 1.326991,1.8937127 2.462606,3.9152167 3.772305,5.8209307 1.309699,1.905713 2.818957,3.717381 4.730198,5.019 1.911241,1.301619 4.271061,2.057561 6.556484,1.705575 1.877487,-0.289158 3.576227,-1.293708 5.049893,-2.492407 1.473666,-1.198698 2.766951,-2.602139 4.185619,-3.865448 z"
       id="path3335"
       inkscape:path-effect="#path-effect3339"
       inkscape:original-d="m 60.231983,15.816271 c 3.078547,-2.119468 -7.74144,14.430583 -11.612087,21.645599 -3.870647,7.215017 -5.119629,-9.963599 -7.679373,-14.945672 -2.559744,-4.982073 -3.386457,2.352185 -5.07961,3.528014 -1.693154,1.175819 -3.16097,-14.229714 -4.741389,-21.3448382 -1.580415,-7.115126 13.25125,11.6500172 19.876947,17.4747522 6.625698,5.824744 6.156954,-4.238388 9.235512,-6.357855 z" />
  </g>
  <g
     inkscape:label="Layer 1"
     inkscape:groupmode="layer"
     id="layer1">
    <g
       id="g2888"
       transform="matrix(-1,0,0,1,189.74195,37.338288)" />
    <path
       id="circle1993"
       style="stroke-width:2.64582;stroke-linejoin:round;fill-opacity:1;fill:url(#linearGradient2144)"
       transform="scale(-1,1)"
       d="m -39.420241,74.138756 a 2.746969,2.746969 0 0 1 -2.746969,2.746969 2.746969,2.746969 0 0 1 -2.746969,-2.746969 2.746969,2.746969 0 0 1 2.746969,-2.746969 2.746969,2.746969 0 0 1 2.746969,2.746969 z m -2.621913,-45.635523 v 1.78438 1.78508 h 7.1e-4 c 6.2399,0 11.25972,5.019824 11.25972,11.259715 0,6.239892 -5.01982,11.259021 -11.25972,11.259021 h -7.1e-4 -1.78578 v 12.020865 h 3.57016 v -8.562237 c 7.33204,-0.886016 13.04549,-7.153019 13.04549,-14.717649 0,-8.168588 -6.66058,-14.829175 -14.82918,-14.829175 z m -68.410386,22.358664 a -2.746969,2.746969 0 0 0 2.74697,2.746968 -2.746969,2.746969 0 0 0 2.74697,-2.746968 -2.746969,2.746969 0 0 0 -2.74697,-2.746969 -2.746969,2.746969 0 0 0 -2.74697,2.746969 z m 2.62192,-45.6355238 v 1.78438 1.78508 h -7.1e-4 c -6.2399,0 -11.25972,5.0198248 -11.25972,11.2597158 0,6.239892 5.01982,11.259021 11.25972,11.259021 h 7.1e-4 1.78578 v 12.020865 h -3.57016 v -8.562237 c -7.33204,-0.886016 -13.04549,-7.153019 -13.04549,-14.717649 0,-8.168588 6.66058,-14.8291758 14.82918,-14.8291758 z m -71.57269,73.8875108 a -2.746969,2.746969 0 0 0 2.74697,2.746969 -2.746969,2.746969 0 0 0 2.74697,-2.746969 -2.746969,2.746969 0 0 0 -2.74697,-2.746969 -2.746969,2.746969 0 0 0 -2.74697,2.746969 z m 2.62192,-45.635524 v 1.78438 1.78508 h -7.1e-4 c -6.2399,0 -11.25972,5.019825 -11.25972,11.259716 0,6.239892 5.01982,11.259021 11.25972,11.259021 h 7.1e-4 1.78578 v 12.020865 h -3.57016 v -8.562237 c -7.33204,-0.886016 -13.04549,-7.153019 -13.04549,-14.717649 0,-8.168588 6.66058,-14.829176 14.82918,-14.829176 z m 32.56069,25.414684 -0.2868,0.974618 c -1.37844,4.664768 -1.87123,8.354224 -1.15807,11.500072 0.62601,2.761398 2.24227,4.987322 4.70152,6.790285 -3.14991,5.4243 -4.95577,11.723746 -4.95577,18.441768 0,6.747153 1.82183,13.072383 4.99711,18.512563 -1.8312,13.17326 -1.39303,23.43593 1.00717,31.40739 2.42848,8.06536 6.91724,13.77053 12.91756,17.53329 2.06066,1.29223 4.28959,2.36152 6.66936,3.2365 h -41.4662 c -3.72944,0 -6.6306,3.31498 -6.6306,7.22074 0,3.90578 2.90116,7.21869 6.6306,7.21869 h 105.369279 c 3.72943,0 6.630602,-3.31291 6.630602,-7.21869 0,-3.90576 -2.901172,-7.22074 -6.630602,-7.22074 h -19.599838 l -1.416968,-51.93533 c 3.263305,-5.49424 5.139738,-11.90693 5.139738,-18.754413 0,-6.718165 -1.805218,-13.017908 -4.955252,-18.442287 2.459313,-1.802892 4.077629,-4.028572 4.703588,-6.789766 0.71316,-3.145848 0.219855,-6.835304 -1.158584,-11.500072 l -0.286806,-0.974618 -35.110517,0.897103 z m 2.03915,2.69906 20.20342,0.517282 c -7.18992,2.687167 -13.31811,7.558694 -17.57412,13.806392 -1.9807,-1.46555 -3.0607,-3.04787 -3.53363,-5.134054 -0.50603,-2.232152 -0.15516,-5.283798 0.90433,-9.18962 z m 66.142736,0 c 1.059471,3.905785 1.410366,6.957481 0.904337,9.18962 -0.473027,2.086597 -1.553217,3.669295 -3.534669,5.135086 -4.256042,-6.248267 -10.38426,-11.120088 -17.574635,-13.807424 z m -33.072396,0.845944 c 12.85293,0 24.035065,7.079783 29.867424,17.555518 -4.195858,-0.980628 -9.67509,-2.2191 -15.029574,-1.692405 -5.8961,0.579972 -11.65019,3.628372 -14.76757,11.224638 -3.88725,-7.293149 -9.56714,-10.615107 -15.35514,-11.341943 -1.62979,-0.204664 -3.25771,-0.236834 -4.8519,-0.150379 -3.47735,0.188587 -6.78696,0.946647 -9.60355,1.735296 5.86592,-10.352264 16.97939,-17.330725 29.74031,-17.330725 z m -18.34514,18.200956 c 0.91365,0.0036 1.82662,0.05656 2.73007,0.170016 5.78205,0.72609 11.20365,3.693435 14.71848,12.427664 l 1.44952,3.59978 1.05265,-3.736205 c 2.51109,-8.918702 7.627604,-11.58931 13.492202,-12.166184 5.597911,-0.55064 11.790288,1.126231 16.278076,2.120802 1.792857,4.152135 2.78846,8.730821 2.78846,13.54491 0,18.883123 -15.281201,34.162253 -34.164318,34.162253 -18.88312,0 -34.16174,-15.27913 -34.16174,-34.162253 0,-4.834464 1.00311,-9.431549 2.81016,-13.59762 3.6092,-1.097854 8.31116,-2.381721 13.00644,-2.363163 z m 0.85887,5.421891 c -5.64424,0 -10.24796,4.603716 -10.24796,10.247953 0,5.644242 4.60372,10.247952 10.24796,10.247952 5.64423,0 10.25001,-4.60371 10.25001,-10.247952 0,-5.644237 -4.60578,-10.247953 -10.25001,-10.247953 z m 35.193195,0 c -5.644237,0 -10.247955,4.603716 -10.247955,10.247953 0,5.644242 4.603718,10.247952 10.247955,10.247952 5.64424,0 10.248471,-4.60371 10.248471,-10.247952 0,-5.644237 -4.604231,-10.247953 -10.248471,-10.247953 z m -35.193195,2.64635 c 4.21432,0 7.60367,3.38728 7.60367,7.601603 0,4.214322 -3.38935,7.601602 -7.60367,7.601602 -4.21433,0 -7.60161,-3.38728 -7.60161,-7.601602 0,-4.214323 3.38728,-7.601603 7.60161,-7.601603 z m 35.193195,0 c 4.214328,0 7.601604,3.38728 7.601604,7.601603 0,4.214322 -3.387276,7.601602 -7.601604,7.601602 -4.214326,0 -7.601085,-3.38728 -7.601085,-7.601602 0,-4.214323 3.386759,-7.601603 7.601085,-7.601603 z m -35.193195,3.54707 c -2.22389,0 -4.05454,1.830649 -4.05454,4.054533 0,2.223884 1.83065,4.055052 4.05454,4.055052 2.22388,0 4.05659,-1.831168 4.05659,-4.055052 0,-2.223884 -1.83271,-4.054533 -4.05659,-4.054533 z m 35.193195,0 c -2.223884,0 -4.054533,1.830649 -4.054533,4.054533 0,2.223884 1.830649,4.055052 4.054533,4.055052 2.223879,0 4.055049,-1.831168 4.055049,-4.055052 0,-2.223884 -1.83117,-4.054533 -4.055049,-4.054533 z m -35.193195,2.644283 c 0.79396,0 1.41025,0.616281 1.41025,1.41025 0,0.79397 -0.61629,1.41025 -1.41025,1.41025 -0.79397,0 -1.40819,-0.61628 -1.40819,-1.41025 0,-0.793969 0.61422,-1.41025 1.40819,-1.41025 z m 35.193195,0 c 0.79397,0 1.408184,0.616281 1.408184,1.41025 0,0.79397 -0.614214,1.41025 -1.408184,1.41025 -0.793969,0 -1.409732,-0.61628 -1.409732,-1.41025 0,-0.793969 0.615763,-1.41025 1.409732,-1.41025 z m -17.731735,5.007964 -1.0573,1.423168 -8.5633,11.51868 2.17661,0.33021 c 2.49472,0.37847 4.48354,2.33522 6.36447,5.24205 l 1.11053,1.71618 1.11052,-1.71618 c 1.88088,-2.90674 3.87025,-4.86358 6.36499,-5.24205 l 2.185914,-0.33176 z m 0.008,4.424018 5.10357,6.81405 c -2.03194,0.84367 -3.66734,2.42798 -5.08031,4.30413 -1.4145,-1.87831 -3.05193,-3.46375 -5.08703,-4.30671 z m -29.55582,14.17381 c 6.65658,8.96806 17.29194,14.80794 29.28452,14.90039 -0.32879,11.95773 3.72082,20.96436 9.755478,26.96062 3.118238,3.09841 6.747721,5.39673 10.558012,6.92413 h -19.58227 c -6.56879,-0.86739 -12.29795,-2.5784 -16.923,-5.47874 -5.4936,-3.44501 -9.52011,-8.51073 -11.79101,-16.05276 -2.06573,-6.86064 -2.62551,-15.79578 -1.30173,-27.25364 z m 58.696679,0.59118 1.300181,47.71337 c -6.648061,-0.32463 -13.721093,-2.98382 -19.09186,-8.32043 -5.54469,-5.50942 -9.32661,-13.75335 -8.97258,-25.15712 10.878731,-0.69 20.479955,-6.11522 26.764259,-14.23582 z m -6.183601,14.39395 c -0.916606,0 -1.65468,0.51085 -1.65468,1.14567 v 4.57285 c 0,0.63482 0.738074,1.14566 1.65468,1.14566 h 0.278535 c 0.916609,0 1.65468,-0.51084 1.65468,-1.14566 v -4.57285 c 0,-0.63482 -0.738071,-1.14567 -1.65468,-1.14567 z m -12.36772,3.89227 c -0.916607,0 -1.654678,0.51084 -1.654678,1.14567 v 4.57285 c 0,0.63482 0.738071,1.14618 1.654678,1.14618 h 0.278535 c 0.916609,0 1.65468,-0.51136 1.65468,-1.14618 v -4.57285 c 0,-0.63483 -0.738071,-1.14567 -1.65468,-1.14567 z m 7.757149,11.29544 c -0.916609,0 -1.654164,0.51084 -1.654164,1.14566 v 5.04776 c 0,0.63482 0.737555,1.14618 1.654164,1.14618 h 0.278535 c 0.916607,0 1.65468,-0.51136 1.65468,-1.14618 v -5.04776 c 0,-0.63482 -0.738073,-1.14566 -1.65468,-1.14566 z m -71.013237,21.25865 h 52.59472 c 8.37289,1.13243 17.899945,0.87486 28.132136,0 h 24.642423 c 2.15209,0 3.984252,1.94703 3.984252,4.57439 0,2.62739 -1.832162,4.57234 -3.984252,4.57234 H -161.79482 c -2.15209,0 -3.98632,-1.94495 -3.98632,-4.57234 0,-2.62736 1.83423,-4.57439 3.98632,-4.57439 z" />
  </g>
</svg>
