<?xml version="1.0" encoding="UTF-8" standalone="no"?>
<!-- Created with Inkscape (http://www.inkscape.org/) -->

<svg
   width="1122.5197"
   height="793.70081"
   viewBox="0 0 296.99998 210.00001"
   version="1.1"
   id="svg5"
   sodipodi:docname="landing_2.svg"
   inkscape:version="1.1.1 (3bf5ae0d25, 2021-09-20)"
   xmlns:inkscape="http://www.inkscape.org/namespaces/inkscape"
   xmlns:sodipodi="http://sodipodi.sourceforge.net/DTD/sodipodi-0.dtd"
   xmlns:xlink="http://www.w3.org/1999/xlink"
   xmlns="http://www.w3.org/2000/svg"
   xmlns:svg="http://www.w3.org/2000/svg">
  <sodipodi:namedview
     id="namedview7"
     pagecolor="#ffffff"
     bordercolor="#999999"
     borderopacity="1"
     inkscape:pageshadow="0"
     inkscape:pageopacity="0"
     inkscape:pagecheckerboard="0"
     inkscape:document-units="px"
     showgrid="false"
     units="px"
     inkscape:zoom="0.64052329"
     inkscape:cx="594.82615"
     inkscape:cy="554.23434"
     inkscape:window-width="1920"
     inkscape:window-height="1018"
     inkscape:window-x="0"
     inkscape:window-y="30"
     inkscape:window-maximized="1"
     inkscape:current-layer="layer1"
     inkscape:snap-bbox="false"
     inkscape:snap-smooth-nodes="true"
     inkscape:object-paths="true"
     inkscape:snap-intersection-paths="true"
     inkscape:snap-nodes="false" />
  <defs
     id="defs2">
    <inkscape:path-effect
       effect="spiro"
       id="path-effect3339"
       is_visible="true"
       lpeversion="1" />
    <inkscape:path-effect
       effect="spiro"
       id="path-effect3215"
       is_visible="true"
       lpeversion="1" />
    <linearGradient
       inkscape:collect="always"
       id="linearGradient2076">
      <stop
         style="stop-color:#7900c8;stop-opacity:1"
         offset="0"
         id="stop2072" />
      <stop
         style="stop-color:#ff0077;stop-opacity:1"
         offset="1"
         id="stop2074" />
    </linearGradient>
    <linearGradient
       inkscape:collect="always"
       xlink:href="#linearGradient2076"
       id="linearGradient2144"
       x1="-191.61126"
       y1="93.477667"
       x2="-27.212284"
       y2="93.477667"
       gradientUnits="userSpaceOnUse"
       gradientTransform="matrix(-1,0,0,1,21.166667,0)" />
  </defs>
  <g
     inkscape:groupmode="layer"
     id="layer2"
     inkscape:label="BG"
     style="display:inline;opacity:1">
    <g
       id="Scene/Plants"
       stroke="none"
       stroke-width="0.753094"
       fill="none"
       fill-rule="evenodd"
       transform="matrix(0.35132824,0,0,0.35132824,-7.8700428,-4.7413276)">
      <g
         id="Background-Shape-2"
         opacity="0.504511"
         transform="translate(55,337)"
         fill="#f2f2f2"
         style="stroke-width:0.567151">
        <path
           d="M 630.15996,153.79549 C 639.34963,222.53553 416.48454,267.37231 224.65938,236.0818 32.834231,204.79129 -55.166053,82.598339 36.369711,17.489129 127.90548,-47.620081 620.97029,85.055443 630.15996,153.79549 Z"
           id="Background-Shape"
           style="stroke-width:0.753094" />
      </g>
      <path
         d="m 655.19094,173.14206 c -4.91571,-2.43754 -11.46886,0.38946 -8.73517,6.83331 2.92826,6.90038 13.75484,6.98563 19.86922,6.84886 -0.61198,-0.0321 -2.58265,-6.35984 -3.25731,-7.31602 -1.98967,-2.82069 -4.85467,-4.86491 -7.87674,-6.36615 z m 56.63795,123.71678 c 1.2402,1.06036 0.10093,0.0994 0,0 z m -61.37335,-92.50619 c -2.87665,2.19899 -3.01385,6.08147 -0.664,8.70942 2.79812,3.12856 7.9074,3.01465 11.72132,2.7098 1.72523,-0.13809 10.93709,-0.87571 8.75359,-2.38316 0.16797,0.0634 0.51875,0.21739 0.89414,0.42666 0.20201,0.73817 0.41415,1.47373 0.63523,2.20601 -0.0542,0.0317 -0.10037,0.0656 -0.15826,0.0972 0.0627,-0.0275 0.10678,-0.0572 0.162,-0.085 2.21527,7.31915 5.36853,14.28819 9.49748,20.80802 -1.54483,-0.60828 -3.1449,-1.0688 -4.76773,-1.27376 -4.80577,-0.6078 -14.91553,3.12682 -9.5399,9.52555 5.15445,6.13415 13.17901,-0.44684 19.02882,-1.35438 5.6742,7.91915 11.93021,15.50845 18.48647,22.84417 -0.40171,0.12584 -0.75429,0.38797 -0.95636,0.79611 -2.6302,-1.33437 -5.37096,-3.2433 -7.8052,-3.7601 -3.51259,-0.74468 -10.71533,-1.19624 -13.37019,1.94787 -3.26535,3.86606 0.23486,7.00631 4.09272,7.74774 5.59399,1.07537 12.91675,-1.65774 18.2994,-3.50442 0.61571,0.10887 1.28784,-0.0712 1.68937,-0.56372 0.11895,-0.0389 0.23787,-0.0773 0.35361,-0.11455 6.63941,7.29989 13.53276,14.35886 20.38421,21.26307 -0.0729,-0.004 -0.14586,-0.008 -0.22193,-0.0122 -1.78721,-1.17219 -3.70423,-2.13395 -5.78217,-2.63772 -4.80685,-1.1716 -10.46251,-1.17734 -14.36334,2.30073 -3.88567,3.46318 -5.26214,9.51997 -1.24225,13.40875 8.0463,7.7842 19.90142,-9.96435 23.96012,-10.70523 6.96259,6.94268 14.32483,13.4292 21.80268,19.78493 -0.84919,-0.25857 -1.7201,-0.4486 -2.62025,-0.53407 -7.33279,-0.70195 -24.54427,8.28783 -15.54514,17.13267 7.84214,7.70758 16.91882,-7.12746 23.23867,-12.31561 7.04662,5.92382 14.13164,11.80696 21.01769,17.91949 -3.75568,-0.99724 -7.38525,-1.14414 -11.41138,0.0724 -4.16598,1.2607 -10.8883,4.40634 -8.25476,10.03108 2.67857,5.72001 10.75096,3.11721 14.95542,1.30107 2.29316,-0.99035 6.89086,-4.33334 10.92764,-5.74143 10.98831,10.37413 20.50608,21.80055 27.71164,35.26094 4.49843,8.4043 7.91208,17.38331 10.31487,26.61192 1.53369,5.89041 4.55558,15.78363 3.9506,23.45028 2.88359,-15.34604 -2.33035,-33.77696 -7.94702,-47.49369 -5.16436,-12.61327 -12.89328,-23.68604 -21.94612,-33.65302 2.27176,-6.83288 21.39348,-16.68806 9.96225,-23.03628 -6.07024,-3.35654 -12.28754,2.21302 -13.61447,8.11171 -0.91138,4.05347 0.47717,9.14653 1.95083,13.08079 -2.84786,-3.03826 -5.80838,-5.97883 -8.85904,-8.82181 -4.21595,-3.92919 -8.5329,-7.7444 -12.89113,-11.51156 7.18177,-6.74694 13.97861,-26.03496 4.3493,-29.18943 -14.21939,-4.64492 -7.37278,21.66471 -6.38086,26.59574 0.28171,0.0168 0.50123,-0.0686 0.66271,-0.25091 -0.0799,0.45157 -0.17276,0.93449 -0.28517,1.42139 -8.34156,-7.17251 -16.8068,-14.204 -24.99308,-21.54793 0.73752,-0.54517 1.9101,-2.62818 2.83158,-3.73688 2.07966,-2.49939 4.06951,-5.11023 5.52374,-8.03413 2.2971,-4.62055 4.51262,-11.99061 -1.5767,-14.70845 -6.62235,-2.96111 -9.76935,5.37463 -9.81552,10.34729 -0.0314,3.43917 0.90515,6.70621 1.39305,10.07717 0.15245,1.05135 -0.43475,5.79038 0.99747,3.75174 -0.0675,0.75166 -0.0769,1.29608 -0.0438,1.68201 -1.46974,-1.32504 -2.9281,-2.66454 -4.3772,-4.01361 0.0671,-0.17037 0.1168,-0.3561 0.12809,-0.57145 0.0777,-1.4825 -1.41407,-2.05348 -2.46024,-1.61927 -1.91221,-1.81717 -3.8057,-3.65722 -5.66541,-5.53378 -3.94156,-3.97572 -7.94032,-8.06491 -11.91138,-12.24116 0.86152,-0.7402 0.51887,-1.76509 1.32465,-2.5509 0.80442,-0.78398 2.38884,-1.21761 3.33476,-1.94584 2.37919,-1.8327 4.35214,-4.50281 5.77897,-7.13058 2.35565,-4.34189 5.39997,-13.45013 -1.48168,-15.51958 -7.09319,-2.1364 -10.69357,6.63132 -11.14965,12.11299 -0.0888,1.06192 0.70635,10.63065 1.31511,14.10525 -7.34793,-7.7614 -14.57494,-15.81403 -21.12254,-24.00682 1.98527,-0.0184 7.61371,-4.08579 8.75156,-5.19569 2.77636,-2.7071 7.18976,-8.68885 2.32237,-11.85429 -4.32788,-2.80759 -9.66244,1.25891 -11.51315,5.21104 -0.30418,0.65076 -1.37683,6.70778 -1.46049,9.4254 -2.70998,-3.47423 -5.29512,-6.96891 -7.70023,-10.47488 -1.60396,-2.33086 -3.10278,-4.72337 -4.50516,-7.1667 0.33762,-0.19136 0.65519,-0.52501 0.95514,-0.93994 7.21809,-1.22505 16.42074,-12.4871 7.9424,-16.40552 -4.03665,-1.86322 -8.41438,1.98284 -10.39179,5.13169 -0.40512,0.64422 -1.06125,3.88302 -1.59524,6.43769 -4.03455,-8.09437 -7.1177,-16.66369 -9.46428,-25.44991 0.62836,-0.15603 1.16053,-0.63602 1.23068,-1.46162 3.50442,-1.99785 6.27172,-3.66143 8.71807,-7.50325 1.51983,-2.38623 4.25687,-7.83811 -0.20875,-9.16259 -5.81134,-1.72333 -9.4618,7.1529 -9.93724,11.52489 -0.0553,0.50748 -0.0533,1.98348 -0.0342,3.33607 -0.20174,-0.0275 -0.40571,-0.0243 -0.60574,0.0109 -1.3347,-5.44054 -2.40004,-10.95107 -3.24733,-16.47089 3.17189,-1.02089 3.72042,-17.67894 1.60847,-20.05085 -4.72056,-5.311 -8.05096,2.36098 -7.79896,6.41578 0.29772,4.78101 2.46422,9.13013 5.04397,12.98989 0.27679,0.40875 0.1978,0.38892 0.26953,-0.18048 0.0396,0.28144 0.13378,0.48914 0.27344,0.6396 -0.13289,2.51667 -0.39258,5.09324 -0.26798,7.3202 0.35722,6.37742 1.1001,12.792 2.17871,19.08732 0.26235,1.53107 0.56287,3.0497 0.89971,4.55518 -2.54942,-2.17199 -5.98679,-4.10173 -7.3318,-4.7052 -3.49087,-1.56467 -8.87075,-3.25408 -12.33811,-0.60325 z m 175.58421,221.39187 c -0.16191,2.22391 -0.56323,4.26018 -1.31264,5.93944 0.56198,-1.91191 0.9931,-3.8989 1.31264,-5.93944 z"
         id="Leaf-Bottom"
         fill="#f2f2f2"
         style="stroke-width:0.567151" />
      <path
         d="m 236.70239,42.658046 c 3.59753,-1.554947 8.16625,0.706545 5.9754,5.200792 -2.3467,4.812626 -10.07256,4.468704 -14.42887,4.142572 0.43772,0 2.07997,-4.439968 2.59695,-5.096795 1.52469,-1.93764 3.64474,-3.288696 5.85652,-4.246569 z m -45.07368,87.568204 c -1.294,0.994 -0.106,0.094 0,0 z m 47.95135,-64.502014 c 2.0135,1.696721 1.96518,4.505398 0.15135,6.314085 -2.15983,2.153199 -5.88095,1.877589 -8.65026,1.513132 -1.25268,-0.165003 -7.9414,-1.046228 -6.29167,-2.052112 -0.1249,0.03944 -0.38656,0.137352 -0.66828,0.27425 -0.1755,0.52538 -0.3583,1.048494 -0.54748,1.568888 0.0383,0.02493 0.0707,0.05122 0.11169,0.07616 -0.0447,-0.02221 -0.0757,-0.04533 -0.11488,-0.06754 -1.89497,5.201221 -4.46051,10.11414 -7.72031,14.665775 1.14966,-0.380776 2.33396,-0.652759 3.52511,-0.73934 3.52738,-0.257024 10.75628,2.822277 6.59208,7.23928 -3.99282,4.234322 -9.5925,-0.821388 -13.82327,-1.69808 -4.44,5.503575 -9.29163,10.746956 -14.3525,15.795866 0.28809,0.10607 0.53516,0.3087 0.66691,0.61106 1.96882,-0.864 4.04021,-2.1387 5.8349,-2.41975 2.5897,-0.4048 7.8589,-0.45829 9.67456,1.9125 2.23322,2.9152 -0.43899,5.05027 -3.28032,5.43966 -4.11999,0.56482 -9.355,-1.68584 -13.20923,-3.223 -0.45311,0.0553 -0.93632,-0.10018 -1.21028,-0.47099 -0.0853,-0.0326 -0.17049,-0.0648 -0.25346,-0.0961 -5.12013,5.01989 -10.41622,9.8562 -15.67584,14.58236 0.0533,0 0.10667,-4.5e-4 0.16228,-4.5e-4 1.34795,-0.77878 2.78252,-1.40071 4.31692,-1.68584 3.54972,-0.66409 7.67382,-0.45421 10.38523,2.20487 2.70092,2.64776 3.47313,7.07337 0.3934,9.72929 -6.16449,5.31636 -14.13051,-7.94825 -17.06164,-8.63682 -5.34213,4.74973 -10.95823,9.15494 -16.65365,13.46134 0.62908,-0.15458 1.27137,-0.25884 1.93099,-0.28649 5.37359,-0.22937 17.57994,6.91336 10.68016,12.95954 -6.01269,5.26876 -12.06413,-5.78689 -16.47404,-9.77235 -5.36447,4.01084 -10.75538,7.99086 -16.00999,12.14404 2.7766,-0.57796 5.42875,-0.54669 8.31794,0.48413 2.98948,1.06799 7.77091,3.5938 5.6357,7.55569 -2.17168,4.02897 -7.95827,1.84404 -10.95459,0.37352 -1.63423,-0.8019 -4.85893,-3.38982 -7.74857,-4.55934 -8.40865,7.07518 -15.78525,14.96586 -21.55361,24.41274 -3.60123,5.8984 -6.43344,12.25283 -8.53811,18.82575 -1.3434,4.19534 -3.92489,11.22474 -3.77674,16.78362 -1.51616,-11.19029 2.98994,-24.30168 7.60955,-33.99379 4.24763,-8.91243 10.30636,-16.61544 17.28819,-23.46987 -1.39536,-5.0199 -14.96153,-12.85981 -6.38375,-17.01117 4.55442,-2.194 8.87498,2.06299 9.61711,6.37256 0.50964,2.96144 -0.69745,6.58652 -1.92233,9.37162 2.19265,-2.08611 4.46371,-4.09742 6.79676,-6.03484 3.22424,-2.67768 6.51777,-5.26922 9.83957,-7.8245 -4.97882,-5.14365 -9.19773,-19.32847 -2.05589,-21.24187 10.54568,-2.81593 4.54803,15.92279 3.63633,19.44587 -0.20605,0.001 -0.36286,-0.0685 -0.47363,-0.20625 0.041,0.3291 0.0903,0.68132 0.15362,1.03716 6.3564,-4.86351 12.7976,-9.62049 19.04733,-14.61364 -0.51694,-0.42158 -1.29234,-1.97007 -1.92187,-2.80551 -1.42089,-1.88348 -2.77204,-3.84402 -3.72067,-6.01037 -1.49839,-3.42336 -2.83221,-8.82902 1.71173,-10.5611 4.94189,-1.88756 6.91801,4.25064 6.76165,7.84309 -0.10849,2.48456 -0.91626,4.8082 -1.40083,7.22386 -0.15134,0.7534 0.0957,4.19761 -0.87068,2.67133 0.0205,0.54533 0.007,0.93879 -0.0324,1.21622 1.1223,-0.90117 2.23686,-1.81322 3.34504,-2.73252 -0.0424,-0.12557 -0.0716,-0.26156 -0.0716,-0.4175 0,-1.07342 1.10954,-1.42927 1.85577,-1.07614 1.46375,-1.23979 2.91472,-2.49681 4.34245,-3.78147 3.02595,-2.72165 6.09794,-5.52307 9.15306,-8.38841 -0.5999,-0.56709 -0.31089,-1.29419 -0.8684,-1.8921 -0.55659,-0.59655 -1.69531,-0.96962 -2.35721,-1.53126 -1.66477,-1.41341 -3.00133,-3.41611 -3.9413,-5.36759 -1.55172,-3.22435 -3.42345,-9.916498 1.67343,-11.150394 5.2537,-1.274241 7.5439,5.193061 7.66698,9.168544 0.0242,0.77017 -0.92127,7.64953 -1.49793,10.13545 5.65439,-5.32633 11.23175,-10.86753 16.31906,-16.535661 -1.44688,-0.0884 -5.39547,-3.238411 -6.18273,-4.082918 -1.92096,-2.059818 -4.91044,-6.546177 -1.24037,-8.647698 3.26299,-1.863537 6.99733,1.274693 8.19577,4.19851 0.19692,0.48141 0.74759,4.895694 0.70474,6.861224 2.10878,-2.406143 4.12729,-4.831778 6.01497,-7.272371 1.25861,-1.622379 2.44292,-3.293261 3.55884,-5.004487 -0.23886,-0.150951 -0.45767,-0.403895 -0.66053,-0.714862 -5.21631,-1.157741 -11.49614,-9.63817 -5.16435,-12.14676 3.01455,-1.192645 6.05965,1.750211 7.38116,4.098784 0.27078,0.480503 0.62543,2.844035 0.91718,4.708932 3.25113,-5.692151 5.8267,-11.763264 7.87348,-18.018872 -0.45221,-0.136445 -0.8219,-0.503169 -0.84151,-1.101985 -2.47892,-1.575235 -4.43316,-2.881206 -6.07013,-5.747907 -1.017,-1.780581 -2.8044,-5.820889 0.50235,-6.608279 4.30325,-1.024469 6.62582,5.523067 6.80542,8.698015 0.021,0.368537 -0.0369,1.434257 -0.10257,2.410223 0.14816,-0.01224 0.29676,-0.0023 0.44127,0.03082 1.18111,-3.878024 2.16849,-7.81679 2.99723,-11.770516 -2.27379,-0.8572 -2.03721,-12.906499 -0.40662,-14.539303 3.64499,-3.656358 5.7802,2.009501 5.44151,4.927878 -0.39979,3.441038 -2.1457,6.499486 -4.17424,9.188945 -0.21744,0.284675 -0.1591,0.273343 -0.18964,-0.140525 -0.0397,0.201721 -0.11624,0.348138 -0.22382,0.451492 9.1e-4,1.822286 0.0916,3.692622 -0.0843,5.295962 -0.50418,4.591526 -1.29098,9.195291 -2.31801,13.700235 -0.24981,1.095638 -0.52697,2.180851 -0.83011,3.255183 1.94193,-1.471881 4.52206,-2.735242 5.52584,-3.120098 2.6052,-0.997724 6.59254,-2.014034 9.01949,0.03128 z M 102.99701,218.48457 c 0.0453,1.48623 0.3395,2.85588 1,4 -0.46115,-1.29246 -0.78769,-2.63035 -1,-4 z"
         id="Leaf-Top"
         fill="#c1dee2"
         opacity="0.2"
         transform="rotate(-3,173.12296,126.71407)"
         style="stroke-width:0.567151" />
      <g
         id="Plant-Left"
         opacity="0.5"
         transform="translate(22,79)"
         style="stroke-width:0.567151">
        <path
           d="m 80.791453,476 h 61.417097 c 2.76142,0 5,2.23858 5,5 0,0.24414 -0.0179,0.48795 -0.0535,0.72948 l -4.74699,32.18846 C 140.96096,523.73048 132.54074,531 122.62207,531 h -22.24414 c -9.918669,0 -18.33889,-7.26952 -19.785992,-17.08206 l -4.746984,-32.18846 c -0.402883,-2.73187 1.48514,-5.2731 4.217016,-5.67598 C 80.303499,476.01788 80.547312,476 80.791453,476 Z"
           id="path28"
           fill="#c1dee2"
           style="stroke-width:0.427118" />
      </g>
      <g
         id="Maceta"
         transform="translate(32,523)"
         fill="#f2f2f2"
         style="stroke-width:0.567151">
        <path
           d="M 15.417722,48.455696 C 15.417722,69.743127 17.097605,87 39.64557,87 62.193534,87 63.873418,69.743127 63.873418,48.455696"
           id="path31"
           style="stroke-width:0.753094" />
        <path
           d="m 46.353417,35.174166 c -0.826498,1.429039 -1.563454,2.886658 -2.214403,4.36616 -0.02297,-3.046978 0.145506,-6.116285 0.605588,-9.22757 0.78644,-5.32942 1.987602,-10.631153 3.116306,-15.924401 C 48.672089,10.584433 48.620838,3.7518432 51.699441,0.72049533 52.543612,0.06537051 52.74685,1.350612 52.74685,1.9083836 52.75745,2.0262793 52.74445,-0.36825336 51.925064,0.04884725 47.054438,2.5644016 45.476257,10.47413 43.916926,14.434352 41.641847,20.214813 39.706085,26.123887 38.909041,32.137906 38.707571,33.657153 38.598,35.175953 38.572669,36.692073 38.407134,36.286584 38.251613,35.877968 38.079598,35.473818 35.268443,28.880592 31.474681,22.447239 26.743081,16.51405 25.578443,15.054198 10.934166,0.64948999 9.7877898,2.8542284 c 0.1131059,0.320194 0.3499212,0.5859058 0.7110362,0.7971355 0.02121,0.024115 0.0218,0.010718 0.0094,-0.025008 0.860077,1.3892933 3.305404,3.5350839 4.067102,4.7524461 1.916911,3.063501 3.406728,6.314564 4.920699,9.503552 3.198778,6.739256 6.166042,13.546392 9.042586,20.367818 0.6698,1.588912 1.367875,3.168893 2.08009,4.743961 C 23.276854,32.404511 13.482585,22.790655 0,17.28707 c 4.6049445,2.34273 7.624049,6.750421 10.733874,10.125185 3.750759,4.070527 7.70122,8.031642 11.459048,12.097704 4.43234,4.796656 9.647586,9.847861 13.910856,15.155846 4.129546,8.669798 8.142451,17.348974 10.61959,26.462666 -1.015008,-3.148797 -0.07953,-7.500219 -0.25331,-10.80487 -0.137848,-2.630324 -0.445355,-5.239213 -0.866557,-7.843189 0.520759,1.174491 0.969648,2.349875 1.172885,3.44309 -0.185564,-1.833635 -0.399405,-3.655659 -0.629152,-5.468305 0.589683,-1.696983 1.168762,-3.280536 1.55992,-4.584981 2.004686,-6.691472 4.391693,-13.267729 7.642311,-19.677413 3.007912,-5.92917 6.458233,-11.782869 10.217828,-17.457938 1.753732,-2.645954 3.531616,-5.282083 5.298308,-7.922679 C 72.021991,9.0834965 73.123007,6.3156276 74.733,4.6592826 64.326073,14.174 52.955978,23.757489 46.353417,35.174166"
           id="Fill-27"
           style="stroke-width:0.753094" />
      </g>
    </g>
  </g>
  <g
     inkscape:label="Layer 1"
     inkscape:groupmode="layer"
     id="layer1">
    <g
       id="g2888"
       transform="matrix(-1,0,0,1,189.74195,37.338288)" />
    <path
       id="circle1993"
       style="fill:url(#linearGradient2144);fill-opacity:1;stroke-width:2.64582;stroke-linejoin:round"
       d="m 60.586909,74.138756 a 2.746969,2.746969 0 0 0 2.746969,2.746969 2.746969,2.746969 0 0 0 2.746969,-2.746969 2.746969,2.746969 0 0 0 -2.746969,-2.746969 2.746969,2.746969 0 0 0 -2.746969,2.746969 z m 2.621913,-45.635523 v 1.78438 1.78508 h -7.1e-4 c -6.2399,0 -11.25972,5.019824 -11.25972,11.259715 0,6.239892 5.01982,11.259021 11.25972,11.259021 h 7.1e-4 1.78578 v 12.020865 h -3.57016 v -8.562237 c -7.33204,-0.886016 -13.04549,-7.153019 -13.04549,-14.717649 0,-8.168588 6.66058,-14.829175 14.82918,-14.829175 z m 68.410398,22.358664 a 2.746969,2.746969 0 0 1 -2.74697,2.746968 2.746969,2.746969 0 0 1 -2.74697,-2.746968 2.746969,2.746969 0 0 1 2.74697,-2.746969 2.746969,2.746969 0 0 1 2.74697,2.746969 z M 128.9973,5.2263732 v 1.78438 1.78508 h 7.1e-4 c 6.2399,0 11.25972,5.0198248 11.25972,11.2597158 0,6.239892 -5.01982,11.259021 -11.25972,11.259021 h -7.1e-4 -1.78578 v 12.020865 h 3.57016 v -8.562237 c 7.33204,-0.886016 13.04549,-7.153019 13.04549,-14.717649 0,-8.168588 -6.66058,-14.8291758 -14.82918,-14.8291758 z m 71.57269,73.8875108 a 2.746969,2.746969 0 0 1 -2.74697,2.746969 2.746969,2.746969 0 0 1 -2.74697,-2.746969 2.746969,2.746969 0 0 1 2.74697,-2.746969 2.746969,2.746969 0 0 1 2.74697,2.746969 z M 197.94807,33.47836 v 1.78438 1.78508 h 7.1e-4 c 6.2399,0 11.25972,5.019825 11.25972,11.259716 0,6.239892 -5.01982,11.259021 -11.25972,11.259021 h -7.1e-4 -1.78578 v 12.020865 h 3.57016 v -8.562237 c 7.33204,-0.886016 13.04549,-7.153019 13.04549,-14.717649 0,-8.168588 -6.66058,-14.829176 -14.82918,-14.829176 z m -32.56069,25.414684 0.2868,0.974618 c 1.37844,4.664768 1.87123,8.354224 1.15807,11.500072 -0.62601,2.761398 -2.24227,4.987322 -4.70152,6.790285 3.14991,5.4243 4.95577,11.723746 4.95577,18.441768 0,6.747153 -1.82183,13.072383 -4.99711,18.512563 1.8312,13.17326 1.39303,23.43593 -1.00717,31.40739 -2.42848,8.06536 -6.91724,13.77053 -12.91756,17.53329 -2.06066,1.29223 -4.28959,2.36152 -6.66936,3.2365 h 41.4662 c 3.72944,0 6.6306,3.31498 6.6306,7.22074 0,3.90578 -2.90116,7.21869 -6.6306,7.21869 H 77.592209 c -3.72943,0 -6.630602,-3.31291 -6.630602,-7.21869 0,-3.90576 2.901172,-7.22074 6.630602,-7.22074 h 19.599838 l 1.416968,-51.93533 c -3.263305,-5.49424 -5.139738,-11.90693 -5.139738,-18.754413 0,-6.718165 1.805218,-13.017908 4.955252,-18.442287 -2.459313,-1.802892 -4.077629,-4.028572 -4.703588,-6.789766 -0.71316,-3.145848 -0.219855,-6.835304 1.158584,-11.500072 l 0.286806,-0.974618 35.110529,0.897103 z m -2.03915,2.69906 -20.20342,0.517282 c 7.18992,2.687167 13.31811,7.558694 17.57412,13.806392 1.9807,-1.46555 3.0607,-3.04787 3.53363,-5.134054 0.50603,-2.232152 0.15516,-5.283798 -0.90433,-9.18962 z m -66.142748,0 c -1.059471,3.905785 -1.410366,6.957481 -0.904337,9.18962 0.473027,2.086597 1.553217,3.669295 3.534669,5.135086 4.256046,-6.248267 10.384266,-11.120088 17.574646,-13.807424 z m 33.072408,0.845944 c -12.85293,0 -24.03507,7.079783 -29.86744,17.555518 4.19586,-0.980628 9.6751,-2.2191 15.02958,-1.692405 5.89611,0.579972 11.6502,3.628372 14.76758,11.224638 3.88725,-7.293149 9.56714,-10.615107 15.35514,-11.341943 1.62979,-0.204664 3.25771,-0.236834 4.8519,-0.150379 3.47735,0.188587 6.78696,0.946647 9.60355,1.735296 -5.86592,-10.352264 -16.97939,-17.330725 -29.74031,-17.330725 z m 18.34514,18.200956 c -0.91365,0.0036 -1.82662,0.05656 -2.73007,0.170016 -5.78205,0.72609 -11.20365,3.693435 -14.71848,12.427664 l -1.44952,3.59978 -1.05265,-3.736205 c -2.51109,-8.918702 -7.62761,-11.58931 -13.49221,-12.166184 -5.59791,-0.55064 -11.79029,1.126231 -16.27808,2.120802 -1.792857,4.152135 -2.78846,8.730821 -2.78846,13.54491 0,18.883123 15.28121,34.162253 34.16433,34.162253 18.88312,0 34.16174,-15.27913 34.16174,-34.162253 0,-4.834464 -1.00311,-9.431549 -2.81016,-13.59762 -3.6092,-1.097854 -8.31116,-2.381721 -13.00644,-2.363163 z m -0.85887,5.421891 c 5.64424,0 10.24796,4.603716 10.24796,10.247953 0,5.644242 -4.60372,10.247952 -10.24796,10.247952 -5.64423,0 -10.25001,-4.60371 -10.25001,-10.247952 0,-5.644237 4.60578,-10.247953 10.25001,-10.247953 z m -35.1932,0 c 5.64424,0 10.24796,4.603716 10.24796,10.247953 0,5.644242 -4.60372,10.247952 -10.24796,10.247952 -5.64424,0 -10.24848,-4.60371 -10.24848,-10.247952 0,-5.644237 4.60424,-10.247953 10.24848,-10.247953 z m 35.1932,2.64635 c -4.21432,0 -7.60367,3.38728 -7.60367,7.601603 0,4.214322 3.38935,7.601602 7.60367,7.601602 4.21433,0 7.60161,-3.38728 7.60161,-7.601602 0,-4.214323 -3.38728,-7.601603 -7.60161,-7.601603 z m -35.1932,0 c -4.21433,0 -7.60161,3.38728 -7.60161,7.601603 0,4.214322 3.38728,7.601602 7.60161,7.601602 4.21433,0 7.60109,-3.38728 7.60109,-7.601602 0,-4.214323 -3.38676,-7.601603 -7.60109,-7.601603 z m 35.1932,3.54707 c 2.22389,0 4.05454,1.830649 4.05454,4.054533 0,2.223884 -1.83065,4.055052 -4.05454,4.055052 -2.22388,0 -4.05659,-1.831168 -4.05659,-4.055052 0,-2.223884 1.83271,-4.054533 4.05659,-4.054533 z m -35.1932,0 c 2.22388,0 4.05453,1.830649 4.05453,4.054533 0,2.223884 -1.83065,4.055052 -4.05453,4.055052 -2.22388,0 -4.05505,-1.831168 -4.05505,-4.055052 0,-2.223884 1.83117,-4.054533 4.05505,-4.054533 z m 35.1932,2.644283 c -0.79396,0 -1.41025,0.616281 -1.41025,1.41025 0,0.79397 0.61629,1.41025 1.41025,1.41025 0.79397,0 1.40819,-0.61628 1.40819,-1.41025 0,-0.793969 -0.61422,-1.41025 -1.40819,-1.41025 z m -35.1932,0 c -0.79397,0 -1.40819,0.616281 -1.40819,1.41025 0,0.79397 0.61422,1.41025 1.40819,1.41025 0.79397,0 1.40973,-0.61628 1.40973,-1.41025 0,-0.793969 -0.61576,-1.41025 -1.40973,-1.41025 z m 17.73174,5.007964 1.0573,1.423168 8.5633,11.51868 -2.17661,0.33021 c -2.49472,0.37847 -4.48354,2.33522 -6.36447,5.24205 l -1.11053,1.71618 -1.11052,-1.71618 c -1.88088,-2.90674 -3.87025,-4.86358 -6.36499,-5.24205 l -2.18592,-0.33176 z m -0.008,4.424018 -5.10357,6.81405 c 2.03194,0.84367 3.66734,2.42798 5.08031,4.30413 1.4145,-1.87831 3.05193,-3.46375 5.08703,-4.30671 z m 29.55582,14.17381 c -6.65658,8.96806 -17.29194,14.80794 -29.28452,14.90039 0.32879,11.95773 -3.72082,20.96436 -9.75548,26.96062 -3.11824,3.09841 -6.74773,5.39673 -10.55802,6.92413 h 19.58228 c 6.56879,-0.86739 12.29795,-2.5784 16.923,-5.47874 5.4936,-3.44501 9.52011,-8.51073 11.79101,-16.05276 2.06573,-6.86064 2.62551,-15.79578 1.30173,-27.25364 z m -58.69669,0.59118 -1.300182,47.71337 c 6.648062,-0.32463 13.721102,-2.98382 19.091872,-8.32043 5.54469,-5.50942 9.32661,-13.75335 8.97258,-25.15712 -10.87873,-0.69 -20.47996,-6.11522 -26.76427,-14.23582 z m 6.1836,14.39395 c 0.91661,0 1.65468,0.51085 1.65468,1.14567 v 4.57285 c 0,0.63482 -0.73807,1.14566 -1.65468,1.14566 h -0.27853 c -0.91661,0 -1.65468,-0.51084 -1.65468,-1.14566 v -4.57285 c 0,-0.63482 0.73807,-1.14567 1.65468,-1.14567 z m 12.36773,3.89227 c 0.91661,0 1.65468,0.51084 1.65468,1.14567 v 4.57285 c 0,0.63482 -0.73807,1.14618 -1.65468,1.14618 h -0.27854 c -0.91661,0 -1.65468,-0.51136 -1.65468,-1.14618 v -4.57285 c 0,-0.63483 0.73807,-1.14567 1.65468,-1.14567 z m -7.75715,11.29544 c 0.91661,0 1.65416,0.51084 1.65416,1.14566 v 5.04776 c 0,0.63482 -0.73755,1.14618 -1.65416,1.14618 h -0.27854 c -0.91661,0 -1.65468,-0.51136 -1.65468,-1.14618 v -5.04776 c 0,-0.63482 0.73807,-1.14566 1.65468,-1.14566 z m 71.01324,21.25865 h -52.59472 c -8.37289,1.13243 -17.89995,0.87486 -28.13215,0 H 77.591959 c -2.15209,0 -3.984252,1.94703 -3.984252,4.57439 0,2.62739 1.832162,4.57234 3.984252,4.57234 H 182.9615 c 2.15209,0 3.98632,-1.94495 3.98632,-4.57234 0,-2.62736 -1.83423,-4.57439 -3.98632,-4.57439 z" />
  </g>
</svg>
