<?xml version="1.0" encoding="UTF-8" standalone="no"?>
<!-- Created with Inkscape (http://www.inkscape.org/) -->

<svg
   width="3840"
   height="2160"
   viewBox="0 0 3840 2160"
   version="1.1"
   id="svg5"
   inkscape:version="1.1.1 (3bf5ae0d25, 2021-09-20)"
   sodipodi:docname="landing_3.svg"
   inkscape:export-filename="/home/masterg/Documents/Personal Project/wiser-saathi-website/assets/images/landing_3.png"
   inkscape:export-xdpi="69.675301"
   inkscape:export-ydpi="69.675301"
   xmlns:inkscape="http://www.inkscape.org/namespaces/inkscape"
   xmlns:sodipodi="http://sodipodi.sourceforge.net/DTD/sodipodi-0.dtd"
   xmlns="http://www.w3.org/2000/svg"
   xmlns:svg="http://www.w3.org/2000/svg">
  <sodipodi:namedview
     id="namedview7"
     pagecolor="#ffffff"
     bordercolor="#999999"
     borderopacity="1"
     inkscape:pageshadow="0"
     inkscape:pageopacity="0"
     inkscape:pagecheckerboard="0"
     inkscape:document-units="px"
     showgrid="false"
     inkscape:snap-global="false"
     inkscape:zoom="0.226311"
     inkscape:cx="1383.0525"
     inkscape:cy="994.20709"
     inkscape:window-width="1920"
     inkscape:window-height="1018"
     inkscape:window-x="0"
     inkscape:window-y="30"
     inkscape:window-maximized="1"
     inkscape:current-layer="layer1" />
  <defs
     id="defs2" />
  <g
     inkscape:label="Layer 1"
     inkscape:groupmode="layer"
     id="layer1">
    <g
       id="humaaans/standing-11"
       stroke="none"
       stroke-width="0.203367"
       fill="none"
       fill-rule="evenodd"
       transform="matrix(5.0684115,0,0,4.7705329,20.076417,-9.0204974)">
      <g
         id="A-Human/Standing"
         transform="translate(40,27)"
         style="stroke-width:0.203367">
        <g
           id="Head/Front/Short-Beard"
           transform="translate(82)"
           style="stroke-width:0.203367">
          <g
             id="Head"
             stroke-width="0.203367"
             transform="translate(54,31)"
             fill="#b28b67">
            <path
               d="M 8.2622739,34.490127 C 3.6543643,29.081376 0.53563479,22.452877 1.0567763,15.025454 2.5583302,-6.3750206 32.348531,-1.6671889 38.143341,9.1339329 43.938152,19.935055 43.249578,47.332996 35.760301,49.263458 32.773588,50.033323 26.411001,48.147461 19.935372,44.244306 L 24,73 H 0 Z"
               id="path6"
               style="stroke-width:0.203367" />
          </g>
          <path
             d="m 75.135305,48.388929 c 0.918684,12.797176 3.348846,19.195765 7.290486,19.195765 5.912807,0 10.929403,-3.75365 13.5238,-3.75365 1.891228,0 1.468975,2.366696 0.215371,4.121434 -1.034265,1.447714 -6.071045,2.843138 -6.071045,5.087581 0,2.244444 3.979474,0.508042 3.979474,1.839177 0,2.201861 0.699387,6.341753 -3.122167,6.341753 -3.86754,0 -14.956462,-1.409405 -16.856802,-7.149517 C 72.867997,70.366972 72.075026,62.690555 71.715507,51.04222 71.48089,51.014341 71.24212,51 71,51 c -3.313709,0 -6,2.686292 -6,6 0,1.682218 0.692292,3.202743 1.807515,4.292214 -1.388319,1.959602 -2.944226,4.006669 -4.727129,6.118976 -6.697981,-4.018516 -11.668263,-15.782219 -5.1199,-27.082912 1.809988,-5.536033 5.907549,-8.493037 10.746866,-9.866069 3.920096,-1.639789 7.989527,-1.824676 11.424706,-0.841638 6.733903,0.577593 12.746955,2.630942 14.451103,3.850376 0,6.375224 -1.235291,8.266734 -11.786355,8.100005 -2.592568,1.369184 -4.585603,3.726918 -6.661501,6.817977 z"
             id="Hair"
             fill="#191847"
             style="stroke-width:0.0460663" />
        </g>
        <g
           id="Bottom/Standing/Skinny-Jeans"
           transform="translate(0,187)"
           style="stroke-width:0.203367">
          <polygon
             id="Leg"
             fill="#191847"
             points="210,221 181.89097,9.9475983e-14 128,9.9475983e-14 164.25496,127.22691 190.70696,221 "
             style="stroke-width:0.0460663" />
          <path
             d="m 118.30434,0 c -0.83857,65.574224 -3.69809,101.34019 -4.57856,107.29789 C 112.84531,113.2556 99.532172,151.1563 73.786361,221 H 93.772647 C 126.54903,153.9969 144.84565,116.0962 148.6625,107.29789 152.47935,98.499584 164.25851,62.73362 182,0 Z"
             id="path12"
             fill="#2f3676"
             style="stroke-width:0.0460663" />
          <g
             id="Accessories/Shoe/Flat-Pointy"
             transform="translate(72,199)"
             fill="#191847"
             style="stroke-width:0.0460663">
            <path
               d="M 0,40 1,19 h 21 c 9.957603,7 22.957603,12.666667 39,17 v 4 H 23 L 10,38 v 2 z"
               id="Shoe"
               style="stroke-width:0.203367" />
          </g>
          <g
             id="g18"
             transform="translate(188,199)"
             fill="#191847"
             style="stroke-width:0.0460663">
            <path
               d="M 0,40 1,19 h 21 c 9.957603,7 22.957603,12.666667 39,17 v 4 H 23 L 10,38 v 2 z"
               id="path16"
               style="stroke-width:0.203367" />
          </g>
        </g>
        <g
           id="Body/Lab-Coat"
           transform="translate(22,82)"
           style="stroke-width:0.203367">
          <path
             d="m 190.35887,88.610022 30.18662,25.591648 c 8.46755,2.93229 15.47536,6.3339 21.02343,10.20484 1.28064,1.342 2.75726,3.98169 -2.88484,3.1488 -5.6421,-0.8329 -11.6142,-1.45523 -12.53221,0.42488 -0.918,1.8801 2.35295,4.434 0.5882,6.93396 -1.1765,1.66664 -5.85462,-3.04581 -14.03438,-14.13737 L 182.1087,105.50664 Z M 53.667141,77.535919 71.378919,80.108135 C 52.366895,121.35766 42.174323,143.1728 40.801204,145.55355 c -3.089517,5.35669 0.543963,14.68677 1.964381,19.62589 -7.178399,2.0729 -4.885861,-9.01792 -13.962489,-6.25165 -8.284725,2.52491 -15.121393,8.24877 -23.3266505,1.44247 -1.0087882,-0.83679 -1.8585686,-3.57309 1.3478244,-5.16741 7.9882941,-3.97202 19.7169571,-11.24032 21.5401391,-13.91907 2.486233,-3.65296 10.920477,-24.90224 25.302732,-63.747861 z"
             id="Skin"
             fill="#b28b67"
             style="stroke-width:0.0460663" />
          <path
             d="m 122.97927,9.2105422 10.61685,-4.5721103 c 18.07224,35.7511761 43.32694,69.6625821 82.93141,96.7076081 l -7.75924,16.56589 C 174.61584,101.62139 142.57061,89.449119 127.58307,61.832198 122.55286,52.563246 123.64558,20.761364 122.97927,9.2105422 Z"
             id="Coat-Back"
             fill="#c5cfd6"
             transform="rotate(5,169.7534,61.27518)"
             style="stroke-width:0.0460663" />
          <path
             d="m 90,110 c 31.43833,3.33333 56.18374,3.33333 74.23623,0 2.23659,-0.41298 2.58944,-4.15761 1.55222,-6.69903 C 149.63635,63.724403 138.5603,29.191627 138.5603,1.7026373 135.59659,3.1967882 130.40983,3.4207054 123,2.3743889 103.0862,30.702676 93.932538,63.206145 90,110 Z"
             id="Shirt"
             fill="#323337"
             style="stroke-width:0.0460663" />
          <path
             d="m 118.0494,0 h 8.29903 c 1.93234,11.364871 8.02708,165.26259 26.84216,215.60597 H 51.385318 C 53.592428,169.48724 71.002871,114.08739 88.639809,67.72831 73.044436,81.999487 59.451785,106.18095 47.861859,140.27269 L 28.792621,135.37765 C 42.971224,74.281083 72.122448,29.374879 116.24629,0.65903686 116.34184,0.43830769 116.43694,0.21862633 116.53158,0 h 0.73442 c 0.27032,-0.17349344 0.54119,-0.34638551 0.81262,-0.51867621 z"
             id="Coat-Front"
             fill="#dde3e9"
             style="stroke-width:0.0460663" />
        </g>
      </g>
    </g>
    <g
       id="Clock"
       transform="matrix(3.5432079,0,0,3.5222626,3110.8053,307.3944)"
       style="fill:none;fill-rule:evenodd;stroke:none;stroke-width:0.283068">
      <circle
         id="Clock-Frame"
         fill="#f2f2f2"
         cx="53"
         cy="53"
         r="53"
         style="stroke-width:0.0796536" />
      <circle
         id="Time"
         fill-opacity="0.1"
         fill="#000000"
         cx="53"
         cy="11"
         r="3"
         style="stroke-width:0.0796536" />
      <circle
         id="circle8"
         fill-opacity="0.1"
         fill="#000000"
         cx="11"
         cy="53"
         r="3"
         style="stroke-width:0.0796536" />
      <circle
         id="circle10"
         fill-opacity="0.1"
         fill="#000000"
         cx="95"
         cy="53"
         r="3"
         style="stroke-width:0.0796536" />
      <circle
         id="circle12"
         fill-opacity="0.1"
         fill="#000000"
         cx="53"
         cy="95"
         r="3"
         style="stroke-width:0.0796536" />
      <polygon
         id="Hand"
         fill="#afb9c5"
         points="55,52 51,52 53,17 "
         style="stroke-width:0.0796536" />
      <polygon
         id="polygon15"
         fill="#afb9c5"
         transform="rotate(135,62.213203,62.213203)"
         points="64.213203,74.213203 60.213203,74.213203 62.213203,50.213203 "
         style="stroke-width:0.0796536" />
      <circle
         id="circle17"
         fill="#c5cfd6"
         cx="53"
         cy="53"
         r="4"
         style="stroke-width:0.0796536" />
    </g>
    <g
       id="Background-Shape-2"
       opacity="0.345889"
       transform="matrix(3.5432079,0,0,3.5222626,1424.2383,867.43415)"
       style="fill:none;fill-rule:evenodd;stroke:none;stroke-width:0.0796536">
      <path
         d="M 0.20634055,172.38486 C 7.1011245,95.336156 377.03564,-53.375955 445.71269,19.603052 514.38974,92.58206 448.36528,229.54457 304.44354,264.61718 160.5218,299.68979 -6.6884434,249.43356 0.20634055,172.38486 Z"
         id="Background-Shape"
         fill="#f2f2f2"
         transform="matrix(-1,0,0,1,473,0)"
         style="stroke-width:0.0224141" />
      <path
         d="M 244.14437,222.44768 C 250.32043,156.99179 581.6922,30.655038 643.21021,92.65356 704.72822,154.65208 689.15682,285.05879 560.23778,314.85435 431.31875,344.6499 237.96831,287.90357 244.14437,222.44768 Z"
         id="path21"
         fill="#dde3e9"
         style="stroke-width:0.0224141" />
    </g>
    <g
       id="g28"
       transform="matrix(3.5432079,0,0,3.5222626,1410.0655,8.002075)"
       style="fill:none;fill-rule:evenodd;stroke:none;stroke-width:0.283068">
      <g
         id="Light"
         transform="translate(0,152.67347)"
         style="stroke-width:0.283068">
        <ellipse
           id="Hanging-Lamp-Light"
           fill="#f2f2f2"
           cx="49.5"
           cy="34.5"
           rx="42.5"
           ry="22.5"
           style="stroke-width:0.0796536" />
        <path
           d="M 99,50 C 99,22.385762 76.838095,0 49.5,0 22.161905,0 0,22.385762 0,50"
           id="Hanging-Lamp"
           fill="#dde3e9"
           style="stroke-width:0.0796536" />
      </g>
      <rect
         id="Wire"
         fill="#dde3e9"
         x="47"
         y="0"
         width="5"
         height="160"
         style="stroke-width:0.0796536" />
    </g>
    <g
       id="g38"
       opacity="0.7"
       transform="matrix(3.5432079,0,0,3.5222626,1728.9542,8.002075)"
       style="fill:none;fill-rule:evenodd;stroke:none;stroke-width:0.0796536">
      <g
         id="g34"
         transform="translate(0,113)"
         style="stroke-width:0.283068">
        <ellipse
           id="ellipse30"
           fill="#f2f2f2"
           cx="37"
           cy="27.842106"
           rx="31.767677"
           ry="18.157894"
           style="stroke-width:0.0796536" />
        <path
           d="M 74,40.350877 C 74,18.065703 57.434536,0 37,0 16.565464,0 0,18.065703 0,40.350877"
           id="path32"
           fill="#dde3e9"
           style="stroke-width:0.0796536" />
      </g>
      <rect
         id="rect36"
         fill="#dde3e9"
         x="35"
         y="0"
         width="5"
         height="136"
         style="stroke-width:0.0224141" />
    </g>
    <g
       id="g46"
       transform="matrix(3.5432079,0,0,3.5222626,3178.1262,705.41007)"
       style="fill:none;fill-rule:evenodd;stroke:none;stroke-width:0.283068">
      <path
         d="M 60,36.23565 78.567634,17.655688 c 3.12355,-3.124838 8.18887,-3.125883 11.313708,-0.0023 7.78e-4,7.78e-4 0.0016,0.0016 0.0023,0.0023 L 139.31604,67.113117 C 142.3152,70.113509 144,74.182171 144,78.424491 V 406"
         id="Body"
         stroke="#cbcbcb"
         stroke-width="2.26454" />
      <rect
         id="Lamp-Base"
         fill="#afb9c5"
         x="114"
         y="405"
         width="59"
         height="7"
         rx="0.84669036"
         ry="0.85172522"
         style="stroke-width:0.0796536" />
      <g
         id="Lamp-Top"
         transform="rotate(45,23.188077,59.395184)"
         style="stroke-width:0.283068">
        <path
           d="m 33.030312,1.3839016 v 0 c 18.225397,0 33,14.7746034 33,33.0000004 v 28 H 0.03031192 v -28 c 0,-18.225397 14.77460308,-33.0000004 33.00000008,-33.0000004 z"
           id="Lamp"
           fill="#c5cfd6"
           style="stroke-width:0.0796536" />
        <ellipse
           id="ellipse43"
           fill="#f2f2f2"
           cx="33.208927"
           cy="61.4454"
           rx="33"
           ry="6.5"
           style="stroke-width:0.0796536" />
      </g>
    </g>
    <g
       id="Big-Leaf-Plant"
       transform="matrix(3.5432079,0,0,3.5222626,4.9714726,1318.1667)"
       style="fill:none;fill-rule:evenodd;stroke:none;stroke-width:0.283068">
      <g
         id="Big-Ass-Leaf"
         transform="translate(22)"
         style="stroke-width:0.283068">
        <path
           d="m 25.257954,1.1730931 c 2.864577,-0.34997166 5.92195,-0.22643311 8.585923,0.904273 5.664665,2.4046422 7.274855,9.0967779 7.197175,14.5361519 -0.08375,5.854523 -1.327001,12.249142 3.124064,16.966273 2.046066,2.168664 4.591213,3.828324 6.600313,6.036809 2.146756,2.360064 3.8312,5.060447 5.078405,7.960229 2.290017,5.32635 3.413997,11.590068 1.319902,17.177445 -1.843814,4.919357 -6.482642,9.359498 -5.480304,14.953283 1.045527,5.835359 6.928778,10.296541 10.607012,14.642968 4.162722,4.918793 7.995458,11.205465 8.62509,17.655945 0.603754,6.18185 -2.087127,12.43391 -6.216765,17.10689 -8.251028,9.33738 -20.653603,13.91487 -33.159205,13.88651 -5.309538,-0.0123 -11.321013,-0.2521 -15.903002,-3.10536 -1.41613,-0.88192 -2.163229,-1.87135 -3.005079,-3.2468 -0.754808,-1.23339 -1.751904,-2.03565 -2.9060231,-2.90839 -2.5355951,-1.91693 -4.3667445,-4.50048 -5.5353381,-7.39249 -4.53790159,-11.23281 -0.910955,-25.12917 5.44108,-35.103984 C 11.136354,88.879607 12.368645,86.605463 11.637436,83.788622 10.874398,80.848181 8.9990145,78.196063 7.3402592,75.668504 5.7011454,73.170487 3.8298786,70.787414 2.5487576,68.08651 1.2069929,65.257121 0.82916271,62.294276 1.0662375,59.197745 1.5118033,53.381115 4.0227324,48.01348 7.5776615,43.335625 11.001716,38.829827 15.022128,34.518476 15.031136,28.614524 15.041029,22.357138 10.857732,16.790807 12.639878,10.428979 13.377803,7.7946614 14.859954,5.0918356 17.24855,3.512523 19.539258,1.9978462 22.563854,1.5022372 25.257954,1.1730931 Z"
           id="leaf"
           fill="#dde3e9"
           style="stroke-width:0.0796536" />
        <path
           d="m 23.38616,11.176431 c 0.05372,-0.840391 1.050589,-1.3444258 1.835348,-1.12513 1.032958,0.288796 1.013093,1.253971 0.985821,2.113865 -0.0836,2.643112 0.298967,5.211786 0.934327,7.776354 1.320526,5.332023 3.761037,10.244605 5.694534,15.366436 1.931811,5.117543 2.838644,10.401251 1.705362,15.816342 -1.068346,5.105675 -2.746751,10.079018 -3.840101,15.191138 -0.963699,4.505677 -1.98912,9.257166 -0.52153,13.75137 1.412182,4.325998 4.534324,7.849051 6.782537,11.758488 4.654059,8.092783 6.718809,17.070756 6.994978,26.309886 0.127987,4.2903 0.01273,8.62005 -0.982568,12.8279 -0.572861,2.42289 -1.34269,5.69731 -3.418944,7.37008 -0.957414,0.7714 -2.594896,1.03814 -3.400704,-0.10421 -0.756537,-1.07145 -0.09285,-2.73015 0.147326,-3.87213 1.040129,-4.94349 1.24938,-9.99553 1.000358,-15.01512 -0.241013,-4.86214 -0.815475,-9.71615 -2.345722,-14.35969 -1.420275,-4.30927 -3.577935,-8.179835 -6.117371,-11.949532 -2.587667,-3.841584 -5.277774,-7.691365 -6.346989,-12.243247 -1.086354,-4.623097 -0.2038,-9.327246 0.976295,-13.862052 1.247979,-4.796545 2.882637,-9.455491 4.572581,-14.122077 1.646909,-4.547239 2.230657,-8.849736 1.321495,-13.608951 C 27.567185,29.79353 22.759802,20.968117 23.38616,11.176431 Z"
           id="middle-thing"
           fill="#c5cfd6"
           style="stroke-width:0.0796536" />
      </g>
      <g
         id="g55"
         transform="translate(32,11)"
         style="stroke-width:0.283068">
        <path
           d="m 90.892332,1.5822735 c 3.544849,1.0763313 7.065551,2.8129454 9.592478,5.5360062 5.3731,5.7906783 3.72448,14.5426293 0.75833,20.9349653 -3.192704,6.880146 -8.030873,13.79582 -5.303506,21.689966 1.253562,3.629129 3.361537,6.915929 4.550696,10.572919 1.27049,3.907864 1.81886,7.977693 1.74899,12.055875 -0.12934,7.490399 -2.12178,15.482756 -7.531222,21.001138 -4.762797,4.858567 -12.550578,7.696367 -14.331595,14.833167 -1.858048,7.44495 2.684418,15.78146 4.701271,22.83516 2.282577,7.98264 3.455107,17.41129 0.784125,25.36735 -2.559348,7.62491 -9.020086,13.6189 -16.333705,16.99695 -14.61303,6.75026 -31.579522,5.71163 -46.232376,-0.82761 -6.221066,-2.77669 -13.145187,-6.18758 -17.011289,-11.94557 -1.1948325,-1.77968 -1.5481296,-3.33847 -1.8085239,-5.40307 -0.2333974,-1.8513 -0.9788477,-3.31879 -1.871218,-4.95131 C 0.6439959,146.69213 -0.13819652,142.68415 0.01976625,138.65605 0.6344858,123.01112 12.233624,108.46374 24.956247,99.971732 27.97076,97.959918 30.618144,95.911522 31.249382,92.19986 31.908618,88.325468 31.110785,84.213388 30.501199,80.361309 29.899036,76.554385 28.963825,72.762625 28.888791,68.901998 28.810539,64.857873 29.933429,61.157378 31.848202,57.618672 35.445256,50.971566 41.227457,45.929903 47.869576,42.247103 54.267249,38.699698 61.261614,35.69249 64.392784,28.715007 67.711803,21.320006 65.747355,12.560873 71.200258,5.9643208 73.458172,3.232793 76.6252,0.8074086 80.261553,0.18227321 83.74893,-0.41734572 87.558444,0.56999666 90.892332,1.5822735 Z"
           id="path51"
           fill="#dde3e9"
           style="stroke-width:0.0796536" />
        <path
           d="m 83.651254,13.810881 c 0.502947,-0.967065 1.932574,-1.041471 2.735348,-0.370458 1.056598,0.883407 0.527882,2.015989 0.04564,3.020013 -1.482019,3.086249 -2.379962,6.328677 -2.980162,9.69874 -1.248415,7.006497 -0.967551,14.103295 -1.389132,21.182151 -0.421306,7.072894 -2.128153,13.805346 -6.289332,19.624101 -3.923201,5.486369 -8.490443,10.496275 -12.446255,15.977171 -3.486601,4.830679 -7.174114,9.920106 -7.811779,16.011509 -0.614359,5.863162 1.191274,11.671702 1.772655,17.479742 1.203632,12.02309 -1.084037,23.73733 -5.59988,34.82338 -2.097284,5.1478 -4.499654,10.21483 -7.867225,14.67625 -1.938782,2.56902 -4.553852,6.04322 -7.857707,6.93595 -1.523515,0.41171 -3.577935,-0.13066 -3.921891,-1.90583 -0.323484,-1.66537 1.321277,-3.2818 2.200204,-4.5083 3.805263,-5.30908 6.695828,-11.18222 9.033534,-17.25711 2.264607,-5.88424 4.135056,-11.93362 4.777666,-18.23471 0.596138,-5.8476 0.100281,-11.56216 -0.894815,-17.35736 -1.013845,-5.90561 -2.143181,-11.87462 -1.009485,-17.825529 1.150953,-6.044224 4.646615,-11.152472 8.401506,-15.904226 3.971347,-5.026135 8.322777,-9.686651 12.742855,-14.327235 4.307252,-4.521808 7.243163,-9.311017 8.672595,-15.423566 2.82431,-12.076257 1.825092,-25.047316 7.685656,-36.314683 z"
           id="path53"
           fill="#c5cfd6"
           style="stroke-width:0.0796536" />
      </g>
      <g
         id="g61"
         transform="translate(0,57)"
         style="stroke-width:0.283068">
        <path
           d="m 13.305977,0 c 5.894289,0 11.076355,3.1243612 14.647112,7.5579337 4.179911,5.1901263 5.024124,11.5283023 6.721448,17.7140093 0.844584,3.078366 2.297208,6.134279 4.842824,8.225758 2.315375,1.902068 5.254734,2.282699 8.02614,3.212004 5.538734,1.85716 10.011171,6.330933 11.777456,11.789782 2.154838,6.658689 -0.12754,13.373874 0.265462,20.122017 0.360746,6.197295 6.471187,10.063724 11.38742,13.034529 4.847644,2.929518 9.214786,5.6718 10.674826,11.37873 1.54828,6.052793 2.06771,12.808907 -0.07675,18.788177 -3.570386,9.9558 -14.019421,14.33976 -24.115867,15.01953 -9.16288,0.61676 -20.684144,-0.35166 -27.565387,-7.00274 -4.117624,-3.98015 -5.608807,-9.54656 -5.4238,-15.08472 0.114935,-3.44379 0.797127,-6.855703 1.679157,-10.183599 0.625096,-2.358753 1.46968,-4.707366 1.710301,-7.144708 C 28.495877,80.942214 22.502596,79.696743 17.400984,77.91636 10.918304,75.65358 6.3798712,71.37972 3.2239905,65.425434 0.28500238,59.881477 -0.94813429,53.658106 0.81370139,47.554248 1.7135278,44.437492 3.3455987,41.60974 5.559016,39.204631 6.5333645,38.146035 7.9066472,37.263086 8.786082,36.150891 9.6069373,35.112214 9.4282325,33.766424 9.1453452,32.549926 7.8373157,26.930639 3.7619584,22.277597 2.3045139,16.668451 0.98869854,11.605443 1.766546,5.304207 6.395443,2.0378788 8.3953045,0.62653818 10.861578,0.01557291 13.305977,0 Z"
           id="path57"
           fill="#c5cfd6"
           style="stroke-width:0.0796536" />
        <path
           d="m 21.337691,14.641377 c 6.247316,6.654646 7.945412,15.683597 8.44377,24.434774 0.279154,4.907236 -0.0114,10.083192 1.430343,14.84303 1.233575,4.073911 4.125523,7.188104 7.106478,10.131359 6.000527,5.924899 12.692503,11.948304 14.447607,20.52311 1.029818,5.03218 0.334691,10.229866 1.757678,15.206636 1.293892,4.523714 3.571996,8.968114 6.342942,12.788144 2.231026,3.07617 5.137686,5.43128 7.576516,8.29885 0.744043,0.87533 1.809904,2.16389 1.502798,3.39957 -0.359333,1.44718 -2.202707,1.90531 -3.510575,1.67788 -3.049364,-0.52984 -5.616185,-3.44159 -7.609985,-5.5584 -2.915488,-3.09536 -5.392935,-6.42468 -7.406596,-10.15924 -2.23544,-4.14743 -4.035415,-8.54837 -4.804468,-13.201374 C 45.81609,92.198517 46.213306,87.167785 44.390896,82.535065 41.324246,74.739985 33.88602,70.139859 28.508165,64.064302 21.807729,56.49376 22.80702,47.071505 23.49332,37.758984 23.870307,32.641335 24.245087,26.862023 21.659141,22.189466 20.671988,20.405839 18.47112,18.742812 18.046688,16.715453 c -0.388756,-1.857506 1.733036,-3.734569 3.291003,-2.074076 z"
           id="path59"
           fill="#afb9c5"
           style="stroke-width:0.0796536" />
      </g>
      <path
         d="m 28,181 c 3.8e-4,38.05849 6.211229,58 39.000093,58 C 99.788957,239 105.99981,219.05849 106,181 Z"
         id="Base"
         fill="#89c5cc"
         style="stroke-width:0.0796536" />
    </g>
    <g
       id="Table"
       transform="matrix(3.5432079,0,0,3.5222626,426.61327,1254.766)"
       style="fill:none;fill-rule:evenodd;stroke:none;stroke-width:0.283068">
      <g
         id="g69"
         transform="translate(23)"
         style="stroke-width:0.283068">
        <rect
           id="rect65"
           fill="#afb9c5"
           x="21"
           y="144"
           width="38"
           height="9"
           rx="0.56446022"
           ry="0.56781685"
           style="stroke-width:0.0796536" />
        <path
           d="m 31,115 c 4.293146,-13.91453 6.698763,-28.581197 7.216851,-44 H 41 42.783149 C 43.301237,86.418803 45.706854,101.08547 50,115 h 6.5 c 8.560414,0 15.5,6.93959 15.5,15.5 0,8.56041 -6.939586,15.5 -15.5,15.5 h -33 C 14.939586,146 8,139.06041 8,130.5 8,121.93959 14.939586,115 23.5,115 Z"
           id="Lamp-Body"
           fill="#dde3e9"
           style="stroke-width:0.0796536" />
        <path
           d="M 4.6222222,1.678615 C 16.081481,0.55953835 27.540741,0 39,0 50.459259,0 61.918518,0.55953835 73.377778,1.678615 L 78,81.13306 C 65,82.377687 52,83 39,83 26,83 13,82.377687 0,81.13306 Z"
           id="Shade"
           fill="#c5cfd6"
           style="stroke-width:0.0796536" />
      </g>
      <path
         d="m 21,153 h 83 21 V 257 H 104 V 175 H 21 v 82 H 0 V 153 Z"
         fill="#f2f2f2"
         id="path71"
         style="stroke-width:0.0796536" />
    </g>
    <g
       id="Plant"
       transform="matrix(3.5432079,0,0,3.5222626,3224.1879,1163.3042)"
       style="fill:none;fill-rule:evenodd;stroke:none;stroke-width:0.283068">
      <g
         id="Succulents"
         transform="translate(13)"
         style="stroke-width:0.283068">
        <path
           d="M 3.3809241,0.20818701 C 12.213925,21.197225 27.229201,35.780534 35.181895,57.604883 c 4.715872,12.942481 6.681657,27.014623 6.800889,41.427065 0.06478,7.828302 -0.07149,15.661642 -0.108135,23.489952 -0.03561,7.6341 -0.24311,15.21939 -0.891145,22.80468 -0.651133,7.62549 -1.380205,15.16016 -1.701771,22.83268 -0.250336,5.9782 -0.364665,12.93171 -2.391099,18.38475 -1.611443,4.33665 -5.707152,4.97202 -6.793921,-0.28753 -0.603904,-2.92377 -0.527771,-6.1882 -0.461187,-9.1931 0.08542,-3.85528 0.309695,-7.70482 0.424023,-11.55938 0.459639,-15.4678 -0.136265,-30.93847 0.175236,-46.41237 C 30.53906,103.9731 32.482392,88.871087 30.33208,73.853431 28.556499,61.45191 24.045542,50.802498 18.861516,40.593177 13.873887,30.77082 8.4454601,21.187174 5.0749526,10.014391 4.1071575,6.8056033 3.3589874,3.4805112 3,0.0301404 3.1569118,-0.04272947 3.2838866,0.01649974 3.3809241,0.20818701 Z"
           id="Thi-Succs!"
           fill="#c1dee2"
           style="stroke-width:0.0796536" />
        <path
           d="m 0.9735884,41.616956 c 1.749076,1.263036 2.7264234,3.110621 3.9086379,4.933594 1.4701561,2.26641 3.1985575,4.312537 4.6683376,6.580587 3.0647361,4.728489 5.7573281,9.747407 8.5510381,14.667465 5.303989,9.338838 9.331037,19.292171 11.325577,30.096279 2.067466,11.196679 2.62493,22.753519 3.492138,34.117159 0.919834,12.04417 1.846059,24.17613 1.967851,36.26665 0.05451,5.41682 0.347335,11.16715 -0.302977,16.54582 -0.404848,3.34854 -1.915977,6.20237 -5.322785,6.1753 -7.236506,-0.0574 -10.633916,-8.07252 -12.053325,-14.64614 -2.089268,-9.67931 -2.506144,-19.96081 -2.17535,-29.85958 0.399585,-11.93588 2.471186,-23.69249 3.367714,-35.58243 C 19.349975,98.324781 18.813562,85.960234 14.486169,74.108861 12.299917,68.119796 9.7625731,62.274305 7.4842259,56.325031 6.5140206,53.791985 5.719362,51.190024 4.4089646,48.831317 2.9512133,46.207614 1.141617,43.825936 0,41 c 0.32440417,0.205925 0.64918424,0.41144 0.9735884,0.616956 z"
           id="path75"
           fill="#89c5cc"
           style="stroke-width:0.0796536" />
        <path
           d="M 84.334143,16.51767 C 84.556013,16.345237 84.778157,16.17284 85,16 c -0.63906,2.692657 -1.793441,4.879894 -2.675846,7.341307 -0.793195,2.21282 -1.19524,4.716918 -1.729489,7.135643 -1.254523,5.680807 -2.704238,11.233566 -3.88916,16.962767 -2.34561,11.337035 -1.901977,23.550467 -0.363621,36.128435 1.452867,11.881474 3.750594,23.744558 4.845461,35.623458 0.907575,9.85146 1.297664,20.01013 0.431948,29.40939 -0.588308,6.38337 -2.516738,14.00499 -7.771155,13.36076 -2.473676,-0.30326 -3.764071,-3.28063 -4.283949,-6.64156 -0.835078,-5.39856 -1.009889,-11.0744 -1.335393,-16.44251 -0.726441,-11.98178 -0.871147,-23.92672 -1.01458,-35.78519 -0.135802,-11.188493 -0.509697,-22.598658 0.237901,-33.50523 0.72107,-10.524215 2.976371,-20.007531 6.200961,-28.757545 1.698376,-4.609904 3.316613,-9.327675 5.224838,-13.721285 0.915118,-2.107446 2.033117,-3.969689 2.948619,-6.075472 0.736163,-1.693802 1.321803,-3.43187 2.507608,-4.515298 z"
           id="path77"
           fill="#c1dee2"
           style="stroke-width:0.0796536" />
        <path
           d="m 3.2088077,76.301822 c 0.9569139,-1.606497 3.0632575,3.691587 3.383825,4.357953 -0.1355828,-0.331467 -0.2717048,-0.662458 -0.4090306,-0.993161 1.8993856,3.158313 3.6370227,6.446115 4.7173809,10.067538 1.069067,3.584961 1.987318,7.242386 2.990427,10.852828 1.88218,6.77402 4.310256,13.35578 6.015553,20.19082 1.661619,6.66042 2.080583,13.20809 1.678335,20.0974 -0.418059,7.16029 -0.673824,14.43044 -0.18611,21.58687 0.232928,3.41795 1.343535,6.6017 2.104731,9.89224 0.762123,3.29379 1.362375,6.6315 2.263359,9.88445 0.206817,-0.42376 0.233163,0.99294 0.232716,1.10049 -0.0057,0.81267 -0.11913,1.49413 -0.380592,2.26471 -0.671865,1.98158 -1.928782,3.66503 -3.841428,4.21159 -3.456458,0.98757 -6.66573,-2.15652 -7.780374,-5.47654 -1.599025,-4.76373 -2.480153,-10.02806 -3.242198,-15.03495 -0.698638,-4.59128 -0.8639609,-9.20997 -0.656401,-13.86447 0.408865,-9.17894 2.069963,-18.23771 2.519302,-27.41385 C 13.107352,118.03572 11.128041,108.64928 9.470824,98.924826 8.6725832,94.239192 7.9097436,89.597768 6.3563044,85.133667 5.7273694,83.325991 4.9073676,81.730716 4.0475942,80.061431 3.5583829,79.111708 2.5690513,77.417615 3.2088077,76.301822 Z"
           id="path79"
           fill="#c1dee2"
           style="stroke-width:0.0796536" />
        <path
           d="m 31.252093,60.697048 c -0.396455,11.444771 -1.080071,22.802726 -2.605905,34.126898 -1.557252,11.556334 -3.345861,23.072994 -4.844234,34.639544 -1.458576,11.25896 -2.98741,22.70491 -2.783586,34.12101 0.150111,8.40896 -1.244227,22.6342 8.095001,26.78447 9.458716,4.20291 11.487652,-13.74559 12.108746,-19.66989 1.190222,-11.36621 0.804891,-22.85223 0.227262,-34.2805 C 40.856365,124.6894 39.866432,113.01993 38.639547,101.33357 37.276835,88.352823 36.207608,75.313546 35.349463,62.295875 34.92489,55.856963 34.820295,49.428659 34.937439,42.988176 35.048171,36.91067 34.817261,30.770311 32.656494,25 c -0.113217,0.0821 -0.225681,0.164204 -0.338905,0.245913"
           id="path81"
           fill="#69a1ac"
           style="stroke-width:0.0796536" />
        <path
           d="m 80.082747,96.955225 c -1.701063,2.47807 -3.415803,4.932025 -5.022237,7.556965 -2.874371,4.69638 -5.473589,9.9194 -6.255526,16.63463 -1.636349,14.05354 -0.323561,29.23214 -0.0067,43.71586 0.06481,2.95976 -0.309521,5.8302 0.857047,8.64694 1.057699,2.55424 3.035205,4.50075 4.920186,4.49034 4.035298,-0.023 3.419623,-9.90461 3.426273,-14.25411 0.01217,-7.62327 -0.842656,-15.32381 -0.769082,-22.93996 0.07346,-7.54546 0.532323,-15.11174 1.626302,-22.27797 1.107571,-7.25337 2.729563,-14.21849 4.870136,-20.718358 0.297049,-0.902013 2.428807,-7.872065 0.414762,-6.670842"
           id="path83"
           fill="#89c5cc"
           style="stroke-width:0.0796536" />
        <path
           d="m 62.262195,22 c -2.653044,0 -2.636779,13.225997 -2.71659,14.924813 -0.288226,6.130581 -0.220519,12.262802 -0.402836,18.394613 -0.399053,13.381404 -0.889265,26.880081 -2.899284,40.106899 -1.082173,7.120425 -2.336827,14.209285 -3.686422,21.275585 -1.353378,7.08681 -3.170111,14.165 -4.060511,21.34161 -0.854844,6.899 -0.37182,13.93373 -0.254562,20.86677 0.117257,6.97486 0.327942,13.96367 1.241794,20.87744 0.225437,1.7066 0.489833,3.40706 0.772764,5.10341 0.23565,1.41343 0.09834,3.16637 0.49702,4.50968 0.639242,2.1515 3.379283,2.85555 5.224386,2.51931 4.992518,-0.91153 8.181542,-7.18029 9.88707,-11.76049 2.177962,-5.84847 3.333515,-12.19228 4.473938,-18.35566 1.292101,-6.98266 2.049357,-14.07192 2.404534,-21.18087 C 73.465574,126.17518 72.538862,111.71167 71.503971,97.310071 70.928275,89.300664 70.263312,81.326522 69.24582,73.366731 68.232489,65.440974 66.932445,57.55048 66.085922,49.60135 65.470888,43.824638 64.864931,38.040135 64.466635,32.241281 64.371316,30.858609 64.291127,22 62.262195,22"
           id="path85"
           fill="#69a1ac"
           style="stroke-width:0.0796536" />
        <path
           d="M 58.940793,118.1387 C 58.508355,104.2527 52.926529,43.258908 51.656581,26.467132 51.339009,22.26417 48.281539,4.7646391 47.884912,0 c -1.075351,1.346742 -0.983458,22.309445 -0.971634,27.126194 0.0125,4.764639 -0.578385,9.450259 -0.882443,14.189271 -0.309801,4.835542 -7.458539,67.285415 -8.386253,71.931745 -1.845631,9.24352 -3.080781,18.72923 -4.033496,28.18035 -0.928052,9.21192 -2.370975,18.93041 -1.129068,28.1906 0.285477,2.13181 0.737171,4.22945 1.472654,6.18784 0.794604,2.116 1.339205,4.07269 1.977051,6.28693 1.026364,3.56654 2.883144,6.69655 5.73622,8.16887 5.849397,3.01896 8.990314,-3.81513 10.582564,-9.76506 2.542937,-9.50194 4.175052,-19.15893 4.940264,-29.13797 0.846632,-11.04047 2.09631,-22.10357 1.750022,-33.22007"
           id="path87"
           fill="#89c5cc"
           style="stroke-width:0.0796536" />
      </g>
      <g
         id="Planter"
         transform="translate(0,159)"
         style="stroke-width:0.283068">
        <rect
           id="Vase"
           fill="#ffffff"
           x="10"
           y="0"
           width="91"
           height="91"
           rx="0.56446022"
           ry="0.56781685"
           style="stroke-width:0.0796536" />
        <rect
           id="Leg-6"
           fill="#c5cfd6"
           x="0"
           y="10"
           width="10"
           height="113"
           rx="0.56446022"
           ry="0.56781685"
           style="stroke-width:0.0796536" />
        <rect
           id="rect92"
           fill="#c5cfd6"
           x="50"
           y="10"
           width="10"
           height="113"
           rx="0.56446022"
           ry="0.56781685"
           style="stroke-width:0.0796536" />
        <rect
           id="rect94"
           fill="#c5cfd6"
           x="101"
           y="10"
           width="10"
           height="113"
           rx="0.56446022"
           ry="0.56781685"
           style="stroke-width:0.0796536" />
      </g>
    </g>
    <g
       id="humaaans/sitting-1"
       stroke="none"
       stroke-width="0.247009"
       fill="none"
       fill-rule="evenodd"
       transform="matrix(4.0484464,0,0,4.0484464,2037.0779,557.51409)">
      <g
         id="A-Human/Sitting"
         transform="matrix(-1,0,0,1,340,24)"
         style="stroke-width:0.247009">
        <g
           id="Head/Front/Airy"
           transform="translate(82)"
           style="stroke-width:0.247009">
          <g
             id="Head-3"
             stroke-width="0.247009"
             transform="translate(54,31)"
             fill="#b28b67">
            <path
               d="M 8.2622739,34.490127 C 3.6543643,29.081376 0.53563479,22.452877 1.0567763,15.025454 2.5583302,-6.3750206 32.348531,-1.6671889 38.143341,9.1339329 43.938152,19.935055 43.249578,47.332996 35.760301,49.263458 32.773588,50.033323 26.411001,48.147461 19.935372,44.244306 L 24,73 H 0 Z"
               id="path6-6"
               style="stroke-width:0.247009" />
          </g>
          <path
             d="m 78.46395,27.685257 c -3.16313,-0.518719 -11.679999,-0.875353 -13.250662,-0.875123 -1.003727,0 -2.091462,0.229314 -2.685941,-0.692316 C 62.040518,25.363109 62.218861,24.086687 62.07357,23.210874 61.904866,22.193467 61.665239,21.189183 61.422857,20.187431 60.733124,17.336894 59.690147,14.624959 58.230806,12.078793 55.492532,7.3018818 51.481065,3.5601063 46.416751,1.3827761 40.824292,-1.0213354 34.495965,-1.5718268 28.480485,-1.0841895 22.043133,-0.56247752 16.215866,1.5625894 10.137955,3.5624086 4.346036,5.4680618 -1.7203989,6.2181667 -7.7781117,5.2875578 -13.881501,4.3500418 -18.493185,1.0420286 -23.641277,-2.097683 c -5.270201,-3.2143076 -11.293025,-5.3165813 -17.523343,-4.8333185 -5.81579,0.4512601 -11.175967,2.8526088 -15.985045,6.06046986 -4.499445,3.00134044 -8.212066,6.61234264 -10.308119,11.69454464 -2.254887,5.466925 -2.252821,11.467764 1.45521,16.299241 5.374636,7.003281 15.352464,8.814308 23.653587,8.634264 4.801504,-0.103836 9.517165,-0.98034 14.05035,-2.574715 6.045548,-2.126449 11.269843,-5.730544 16.925652,-8.654756 2.654266,-1.372199 5.3978186,-2.499198 8.2735796,-3.311006 2.790606,-0.788094 5.5392083,-1.149562 8.0658566,0.536217 2.6728579,1.783398 5.0679868,3.535255 8.1257638,4.651663 2.933372,1.071052 6.040498,1.670123 9.165756,1.645949 6.080666,-0.04697 12.0748,-1.94157 17.980565,-3.210624 4.815964,-1.034675 9.968876,-2.065897 14.878717,-1.071283 2.048771,0.415114 5.041362,1.272047 5.781361,3.401259 -12.454439,2.257221 -17.345907,17.659927 -13.834811,28.966987 1.894986,6.102833 13.286009,13.236981 17.714988,10.028629 2.805886,-2.032583 1.102425,-4.700996 0,-6.462522 -2.111202,-3.3734 -2.833528,-7.706649 1.073045,-10.055274 3.369706,-2.025605 6.91272,2.78467 6.979743,2.779375 0.926147,-0.07298 8.928861,-4.598871 14.442586,-11.203288 5.43931,0.322437 6.264532,-3.264104 4.965731,-6.197221 -1.2988,-2.933116 -9.405496,-6.62447 -13.775946,-7.341651 z"
             id="hair"
             fill="#191847"
             style="stroke-width:0.0669127" />
        </g>
        <g
           id="Bottom/Sitting/Sweat-Pants"
           transform="translate(0,187)"
           style="stroke-width:0.247009">
          <g
             id="Objects/Seat/Ball"
             transform="translate(10,42)"
             fill="#c5cfd6"
             style="stroke-width:0.0669127">
            <ellipse
               id="Ballsy-Ball"
               cx="116"
               cy="58.5"
               rx="77"
               ry="73.5"
               style="stroke-width:0.247009" />
          </g>
          <path
             d="M 271.50925,162.65985 C 258.69647,134.30154 249.43039,109.60828 245.71102,96.580056 239.34256,74.272573 234.49782,54.64329 233.27333,47.312777 c -2.91996,-17.480549 22.46194,-18.498477 25.8169,-9.810948 5.07786,13.148919 13.94264,56.35078 24.59436,121.605581 z M 122.88835,73.663541 c 11.75571,-4.646714 52.92361,-19.188661 72.77888,-23.302311 5.70561,-1.182099 11.23565,-2.280401 16.43486,-3.272961 15.4539,-2.95024 23.46047,24.929159 8.57648,27.071287 -37.06701,5.334743 -89.61575,10.843733 -94.11278,11.461968 -6.30277,0.866482 -11.06554,-9.037667 -3.67744,-11.957983 z"
             id="Skin-7"
             fill="#b28b67"
             style="stroke-width:0.0669127" />
          <path
             d="M 221.58712,39.416257 158,7.0467174 V 0 h 7.56219 c 61.51769,15.675722 92.95318,25.72167 94.30646,30.137842 0.0146,0.04751 0.0279,0.09509 0.0401,0.142725 0.031,0.04063 0.0614,0.08151 0.0913,0.122641 12.19151,16.766818 19.49295,98.623762 21.88942,104.752932 l -23.36169,3.48524 C 249.59126,105.50329 221,82.418101 221.75949,42.729011 c -0.20508,-1.164235 -0.2569,-2.268314 -0.17237,-3.312754 z"
             id="Leg-Back"
             fill="#1f28cf"
             style="stroke-width:0.0669127" />
          <path
             d="M 163.28317,58.640476 C 157.4651,57.475825 152.10728,56.436391 147.5227,55.632259 117.90929,50.438083 109.27377,34.58625 114.37955,0 h 54.56221 c 8.91283,2.5603181 55.23228,21.984838 79.26486,32.316337 15.906,6.837916 10.89191,31.488143 1.88434,37.903145 C 250.04204,70.61303 249.87994,70.880356 249.59126,71 201.13687,91.082653 162.80499,80.545336 150,83.912167 l -5.92288,-18.683751 z"
             id="Leg-Front"
             fill="#2b44ff"
             style="stroke-width:0.0669127" />
          <g
             id="Accessories/Shoe/Flat-Sneaker"
             transform="rotate(64,28.551925,147.45232)"
             fill="#e4e4e4"
             style="stroke-width:0.0669127">
            <path
               d="M 2.6781318,25.401924 C 1.5593773,28.388411 1,30.622993 1,32.105671 1,33.908957 1.3004142,36.5404 1.9012426,40 c 2.0919386,0 20.8925424,0 56.4018124,0 1.465683,-4.845493 0.619606,-7.461418 -2.538232,-7.847777 -3.157838,-0.386358 -5.781107,-0.735209 -7.869809,-1.046552 L 21.679993,19.418883 c -0.50443,-0.224877 -1.095649,0.0017 -1.320526,0.506174 -0.0038,0.0086 -0.0076,0.01731 -0.01117,0.02605 l -1.685082,4.08759 c -2.923332,1.363957 -5.298842,2.045936 -7.126532,2.045936 -1.484954,0 -3.5356885,-0.599726 -6.1522031,-1.799176 l 5.5e-6,-1.2e-5 c -1.0041007,-0.460295 -2.1912281,-0.01945 -2.6515233,0.984647 -0.019839,0.04328 -0.038127,0.08725 -0.054828,0.131834 z"
               id="shoe"
               style="stroke-width:0.247009" />
          </g>
          <g
             id="g20"
             transform="translate(263,132)"
             fill="#e4e4e4"
             style="stroke-width:0.0669127">
            <path
               d="M 2.6781318,25.401924 C 1.5593773,28.388411 1,30.622993 1,32.105671 1,33.908957 1.3004142,36.5404 1.9012426,40 c 2.0919386,0 20.8925424,0 56.4018124,0 1.465683,-4.845493 0.619606,-7.461418 -2.538232,-7.847777 -3.157838,-0.386358 -5.781107,-0.735209 -7.869809,-1.046552 L 21.679993,19.418883 c -0.50443,-0.224877 -1.095649,0.0017 -1.320526,0.506174 -0.0038,0.0086 -0.0076,0.01731 -0.01117,0.02605 l -1.685082,4.08759 c -2.923332,1.363957 -5.298842,2.045936 -7.126532,2.045936 -1.484954,0 -3.5356885,-0.599726 -6.1522031,-1.799176 l 5.5e-6,-1.2e-5 c -1.0041007,-0.460295 -2.1912281,-0.01945 -2.6515233,0.984647 -0.019839,0.04328 -0.038127,0.08725 -0.054828,0.131834 z"
               id="path18"
               style="stroke-width:0.247009" />
          </g>
        </g>
        <g
           id="Body/Jacket-2"
           transform="translate(22,82)"
           style="stroke-width:0.247009">
          <path
             d="m 198,77.617088 36.23457,-15.912914 c 6.34745,-6.325152 12.47682,-11.13256 18.3881,-14.422224 1.76759,-0.562741 4.78743,-0.732751 1.5655,3.973218 -3.22194,4.70597 -6.39928,9.800846 -5.11188,11.450128 1.2874,1.649283 5.01672,-0.171076 6.49005,2.510981 0.98223,1.788037 -5.30405,3.926903 -18.85885,6.416599 L 209.56994,92.439287 Z M 51.508283,82 72,86.065845 C 51.392082,124.47106 40.340426,144.82584 38.845032,147.1302 c -3.364638,5.18481 -0.225363,14.68704 0.934272,19.69098 -7.2749,1.69344 -4.405903,-9.25617 -13.612148,-6.97 -8.403034,2.08672 -15.527793,7.44199 -23.3632776,0.21956 -0.9633268,-0.88796 -1.6685276,-3.66345 1.6159415,-5.08699 C 12.60263,151.43719 24.692043,144.79634 26.652342,142.2181 29.325561,138.7022 37.610874,118.6295 51.508283,82 Z"
             id="path23"
             fill="#b28b67"
             style="stroke-width:0.0669127" />
          <path
             d="m 123.28025,9.8771803 8.48495,-2.2311707 c 20.35493,16.5590654 31.83717,59.6156624 44.84747,64.3096364 12.30071,4.437963 28.59592,-2.323636 47.89049,-11.216614 l 7.29289,13.096311 C 215.40983,95.000024 178.29861,114.91655 161.84294,106.83981 135.53374,93.926787 125.0468,40.501408 123.28025,9.8771803 Z"
             id="Coat-Back-5"
             fill="#db2721"
             transform="rotate(5,177.53815,58.161768)"
             style="stroke-width:0.0669127" />
          <path
             d="m 90,114 c 34.67176,0 60.17557,0 76.51145,0 3.49618,0 2.83739,-5.04836 2.332,-7.59579 C 163.01059,77.003766 140.2413,45.311515 140.2413,3.4607303 L 118.1718,0 C 99.917485,29.358407 93.604826,65.50455 90,114 Z"
             id="Shirt-3"
             fill="#dde3e9"
             style="stroke-width:0.0669127" />
          <path
             d="M 82.368755,84.23317 C 66.771381,112.36783 53.660945,132.62344 43.037445,145 L 27,141.85882 C 37.330593,77.790672 67.246611,30.504399 116.74805,0 H 117 h 8.4864 c 19.81252,67.536948 25.27448,112.53695 16.38588,135 H 73 c 1.089628,-16.43655 4.583396,-33.8188 9.368756,-50.766834 z"
             id="Coat-Front-5"
             fill="#ff4133"
             style="stroke-width:0.0669127" />
        </g>
      </g>
    </g>
  </g>
</svg>
